<svg id="Vrstva_1" data-name="Vrstva 1" xmlns="http://www.w3.org/2000/svg" xmlns:xlink="http://www.w3.org/1999/xlink" viewBox="0 0 814 852.77"><defs><style>.cls-1{fill:url(#Nepojmenovaný_přechod_43);}.cls-2{fill:url(#Nepojmenovaný_přechod_19);}.cls-3{fill:url(#Nepojmenovaný_přechod_148);}.cls-4{fill:url(#Nepojmenovaný_přechod_23);}.cls-5{fill:url(#Nepojmenovaný_přechod_72);}.cls-6{fill:url(#Nepojmenovaný_přechod_60);}.cls-7{fill:#2d1a62;}</style><linearGradient id="Nepojmenovaný_přechod_43" x1="410.04" y1="213.27" x2="400.99" y2="111.82" gradientUnits="userSpaceOnUse"><stop offset="0.23" stop-color="#943259"/><stop offset="0.34" stop-color="#793070"/><stop offset="0.47" stop-color="#612e85"/><stop offset="0.59" stop-color="#522c92"/><stop offset="0.69" stop-color="#4d2c96"/></linearGradient><linearGradient id="Nepojmenovaný_přechod_19" x1="131.01" y1="91.51" x2="521.15" y2="88.09" gradientUnits="userSpaceOnUse"><stop offset="0.05" stop-color="#fcb503"/><stop offset="0.14" stop-color="#fcb103"/><stop offset="0.85" stop-color="#f73f01"/></linearGradient><linearGradient id="Nepojmenovaný_přechod_148" x1="224.24" y1="31.74" x2="28.66" y2="776.78" gradientTransform="matrix(-1, 0, 0, 1, 631.87, -88.23)" gradientUnits="userSpaceOnUse"><stop offset="0.14" stop-color="#fcb103"/><stop offset="0.16" stop-color="#fcb503"/><stop offset="0.67" stop-color="#f73f01"/></linearGradient><linearGradient id="Nepojmenovaný_přechod_23" x1="405.72" y1="176.52" x2="414.09" y2="547.61" gradientUnits="userSpaceOnUse"><stop offset="0" stop-color="#943259"/><stop offset="0.13" stop-color="#f73f01"/><stop offset="0.18" stop-color="#f96902"/><stop offset="0.23" stop-color="#fa8a02"/><stop offset="0.28" stop-color="#fba203"/><stop offset="0.33" stop-color="#fcb003"/><stop offset="0.37" stop-color="#fcb503"/></linearGradient><linearGradient id="Nepojmenovaný_přechod_72" x1="650.58" y1="349.08" x2="-135.13" y2="418.82" gradientUnits="userSpaceOnUse"><stop offset="0.11" stop-color="#2d1a62"/><stop offset="0.12" stop-color="#2e1a63"/><stop offset="0.55" stop-color="#442788"/><stop offset="0.78" stop-color="#4d2c96"/></linearGradient><linearGradient id="Nepojmenovaný_přechod_60" x1="241.81" y1="450.99" x2="816.96" y2="265.96" gradientUnits="userSpaceOnUse"><stop offset="0" stop-color="#4d2c96"/><stop offset="0.57" stop-color="#943259"/></linearGradient></defs><polygon class="cls-1" points="521.13 179.19 292.87 179.19 407 137.82 521.13 179.19"/><polygon class="cls-2" points="407 137.82 407 0 292.87 179.19 407 137.82"/><polygon class="cls-3" points="407 137.82 407 0 521.13 179.19 407 137.82"/><polygon class="cls-4" points="556.47 234.62 257.6 234.62 407 275.66 556.47 234.62"/><polygon class="cls-5" points="146.98 408.03 407 520.04 407 275.66 257.6 234.62 146.98 408.03"/><polygon class="cls-6" points="667.02 408.03 407 520.04 407 275.66 556.47 234.62 667.02 408.03"/><path class="cls-7" d="M207.4,805.34H188V789.61h-.43A46.27,46.27,0,0,1,173,803.51a37.38,37.38,0,0,1-19.73,5.28,45.89,45.89,0,0,1-20.59-4.42,44.77,44.77,0,0,1-15.09-12A53.93,53.93,0,0,1,108.23,775a66.5,66.5,0,0,1-3.23-20.7,60.09,60.09,0,0,1,3.34-19.94,52.13,52.13,0,0,1,9.49-16.82,47.1,47.1,0,0,1,15-11.64,43.79,43.79,0,0,1,19.83-4.42,37.75,37.75,0,0,1,20.05,5.39,47.5,47.5,0,0,1,14.88,14.44H188V704.45h19.4Zm-51.09-13.79a31.88,31.88,0,0,0,14-2.91,30.14,30.14,0,0,0,10.24-8A35.18,35.18,0,0,0,186.92,769a45,45,0,0,0,2.16-14.12A44.32,44.32,0,0,0,186.92,741a34,34,0,0,0-6.36-11.53,30.42,30.42,0,0,0-10.34-7.87,32.14,32.14,0,0,0-13.91-2.91,29.16,29.16,0,0,0-13.47,3,30.55,30.55,0,0,0-10,8.08,36.44,36.44,0,0,0-6.25,11.53,42.65,42.65,0,0,0-2.16,13.59,43.63,43.63,0,0,0,2.16,13.69,38.8,38.8,0,0,0,6.14,11.75,29,29,0,0,0,9.92,8.19A29.81,29.81,0,0,0,156.31,791.55Z" transform="translate(-105 -88.23)"/><path class="cls-7" d="M266.3,727.52a16.67,16.67,0,0,0-5.17-6.26,12.64,12.64,0,0,0-7.76-2.58,10.85,10.85,0,0,0-7.33,2.8,9,9,0,0,0-3.24,7.12,8.69,8.69,0,0,0,2,5.71,24.26,24.26,0,0,0,5.28,4.63,47.88,47.88,0,0,0,7.44,4q4.2,1.83,8.73,3.77a77.61,77.61,0,0,1,8.73,4.42,33.48,33.48,0,0,1,7.44,5.93,27.6,27.6,0,0,1,5.17,7.87,25.77,25.77,0,0,1,1.94,10.46,31.57,31.57,0,0,1-2.8,13.26,34.36,34.36,0,0,1-7.54,10.67,34,34,0,0,1-11,7,36,36,0,0,1-13.36,2.48A39.28,39.28,0,0,1,244,807.28a39.86,39.86,0,0,1-10-4.42,36.2,36.2,0,0,1-8.4-7.11,29.65,29.65,0,0,1-5.61-9.59l16.6-7.55a32.59,32.59,0,0,0,7.22,9.27c2.81,2.45,6.5,3.67,11.11,3.67a16,16,0,0,0,10.77-3.88,13,13,0,0,0,4.53-10.35,9.87,9.87,0,0,0-1.83-6.36,25.14,25.14,0,0,0-5.28-4.64l-19-10.13a71.51,71.51,0,0,1-7.87-4.53,31.85,31.85,0,0,1-6.15-5.28,21.16,21.16,0,0,1-4-6.68,25.84,25.84,0,0,1-1.4-9,28.13,28.13,0,0,1,2.37-11.43,30.45,30.45,0,0,1,6.36-9.37,29.06,29.06,0,0,1,9.38-6.26,29.89,29.89,0,0,1,11.64-2.26,28.87,28.87,0,0,1,16.39,4.74A32.92,32.92,0,0,1,282,719.11Z" transform="translate(-105 -88.23)"/><path class="cls-7" d="M377.56,733.12q-11.85-13.57-28.89-13.58a30.53,30.53,0,0,0-13.25,2.91,34.92,34.92,0,0,0-10.68,7.76A36.73,36.73,0,0,0,315,754.9a38.88,38.88,0,0,0,2.59,14.33A32.93,32.93,0,0,0,335.85,788,35.72,35.72,0,0,0,350,790.68a32.29,32.29,0,0,0,15.2-3.55,44.43,44.43,0,0,0,12.39-9.81v24.79a50.43,50.43,0,0,1-13.47,5.17,65.75,65.75,0,0,1-14.34,1.51,55.27,55.27,0,0,1-21-4,52.92,52.92,0,0,1-17.14-11.1A53.61,53.61,0,0,1,300,776.89a51.35,51.35,0,0,1-4.31-21.13,55.51,55.51,0,0,1,4.2-21.67,51.69,51.69,0,0,1,11.65-17.25,53.84,53.84,0,0,1,17.57-11.31,57.52,57.52,0,0,1,21.77-4.1,61.66,61.66,0,0,1,13.91,1.62,45.1,45.1,0,0,1,12.82,5.06Z" transform="translate(-105 -88.23)"/><path class="cls-7" d="M405.7,758.13a36.8,36.8,0,0,0,2.15,12.5A33.45,33.45,0,0,0,414,781.31a30.22,30.22,0,0,0,9.59,7.43,27.54,27.54,0,0,0,12.5,2.81q11.22,0,17.9-5.29a54.9,54.9,0,0,0,12.29-14.33l16.38,9.27a51.2,51.2,0,0,1-19.51,20.37,53.24,53.24,0,0,1-27.27,7.22,50.52,50.52,0,0,1-20.81-4.09,45.35,45.35,0,0,1-15.52-11.21,50.17,50.17,0,0,1-9.81-16.82,62,62,0,0,1-3.45-20.91,71.19,71.19,0,0,1,3.13-21.56A49.75,49.75,0,0,1,398.69,717,42.11,42.11,0,0,1,414,705.53a52.12,52.12,0,0,1,21.45-4.1q12.06,0,20.91,4.2A41.47,41.47,0,0,1,471,717.06a49.06,49.06,0,0,1,8.73,17,73.59,73.59,0,0,1,2.91,21v3Zm57.56-14.66q-1.72-11.43-8.95-18.33t-18.86-6.89q-11.43,0-19.19,7.11a30.14,30.14,0,0,0-9.49,18.11Z" transform="translate(-105 -88.23)"/><path class="cls-7" d="M515.41,718h.43a29.74,29.74,0,0,1,12.82-12.4,38.41,38.41,0,0,1,17.57-4.2q10.56,0,17.57,3.34a26.9,26.9,0,0,1,11,9.27A38.13,38.13,0,0,1,580.4,728,86.71,86.71,0,0,1,582,745.2v60.14h-19.4V747.57a97.34,97.34,0,0,0-.65-11.75,22.69,22.69,0,0,0-3-9.17,15.2,15.2,0,0,0-6.79-5.92q-4.41-2.06-11.75-2.05-9.48,0-14.55,3.77a21.44,21.44,0,0,0-7.33,9.59A42.43,42.43,0,0,0,515.84,745q-.44,7.11-.43,14v46.35H496V704.45h19.41Z" transform="translate(-105 -88.23)"/><path class="cls-7" d="M640.59,727.52a16.58,16.58,0,0,0-5.17-6.26,12.64,12.64,0,0,0-7.76-2.58,10.89,10.89,0,0,0-7.33,2.8,9,9,0,0,0-3.23,7.12,8.73,8.73,0,0,0,2,5.71,24.09,24.09,0,0,0,5.29,4.63,47.3,47.3,0,0,0,7.43,4l8.73,3.77a78.62,78.62,0,0,1,8.74,4.42,33.43,33.43,0,0,1,7.43,5.93,27.85,27.85,0,0,1,5.18,7.87,25.93,25.93,0,0,1,1.94,10.46,31.72,31.72,0,0,1-2.8,13.26,34.39,34.39,0,0,1-7.55,10.67,33.91,33.91,0,0,1-11,7,36,36,0,0,1-13.37,2.48,39.28,39.28,0,0,1-10.89-1.51,40,40,0,0,1-10-4.42,36,36,0,0,1-8.41-7.11,29.83,29.83,0,0,1-5.61-9.59l16.6-7.55a32.62,32.62,0,0,0,7.23,9.27q4.2,3.68,11.1,3.67A16.06,16.06,0,0,0,640,787.67a13,13,0,0,0,4.53-10.35,9.87,9.87,0,0,0-1.84-6.36,25.14,25.14,0,0,0-5.28-4.64l-19-10.13a71.51,71.51,0,0,1-7.87-4.53,31.49,31.49,0,0,1-6.14-5.28,20.79,20.79,0,0,1-4-6.68,25.6,25.6,0,0,1-1.4-9,28,28,0,0,1,2.37-11.43,30.45,30.45,0,0,1,6.36-9.37,29,29,0,0,1,9.38-6.26,29.89,29.89,0,0,1,11.64-2.26,28.84,28.84,0,0,1,16.38,4.74,32.84,32.84,0,0,1,11.21,12.94Z" transform="translate(-105 -88.23)"/><path class="cls-7" d="M697.38,805.34H678V704.45h19.4Z" transform="translate(-105 -88.23)"/><path class="cls-7" d="M766,701.43a54.87,54.87,0,0,1,21.13,4.1,52.14,52.14,0,0,1,17.14,11.31,53.87,53.87,0,0,1,11.42,17,55.66,55.66,0,0,1,0,42.47,53.83,53.83,0,0,1-11.42,17,52.17,52.17,0,0,1-17.14,11.32,56.91,56.91,0,0,1-42.37,0,52.42,52.42,0,0,1-17-11.32,53.83,53.83,0,0,1-11.42-17,55.66,55.66,0,0,1,0-42.47,53.87,53.87,0,0,1,11.42-17,52.4,52.4,0,0,1,17-11.31A54.58,54.58,0,0,1,766,701.43ZM766,720a33.14,33.14,0,0,0-13.47,2.8,34.81,34.81,0,0,0-11,7.55,35.3,35.3,0,0,0-7.33,11.21,34.89,34.89,0,0,0-2.69,13.58,34.15,34.15,0,0,0,2.69,13.48,37.06,37.06,0,0,0,7.33,11.21,34,34,0,0,0,11,7.65,33.8,33.8,0,0,0,26.94,0,34.08,34.08,0,0,0,11-7.65,37.06,37.06,0,0,0,7.33-11.21,34.33,34.33,0,0,0,2.69-13.48,34.92,34.92,0,0,0-21-32.34A33.17,33.17,0,0,0,766,720Z" transform="translate(-105 -88.23)"/><path class="cls-7" d="M852.38,718h.43a29.76,29.76,0,0,1,12.83-12.4,38.38,38.38,0,0,1,17.57-4.2q10.56,0,17.57,3.34a26.9,26.9,0,0,1,11,9.27,38.13,38.13,0,0,1,5.6,13.91A86.71,86.71,0,0,1,919,745.2v60.14H899.6V747.57a97.34,97.34,0,0,0-.65-11.75,22.69,22.69,0,0,0-3-9.17,15.2,15.2,0,0,0-6.79-5.92q-4.42-2.06-11.75-2.05-9.48,0-14.55,3.77a21.44,21.44,0,0,0-7.33,9.59,42.73,42.73,0,0,0-2.7,12.94q-.42,7.11-.43,14v46.35H833V704.45h19.4Z" transform="translate(-105 -88.23)"/><polygon class="cls-7" points="568.12 599.74 597 599.74 582.56 577.07 568.12 599.74"/><path class="cls-7" d="M258.68,872.16h.21a17.69,17.69,0,0,1,3.45-4.19,20.85,20.85,0,0,1,4.56-3.13,22.64,22.64,0,0,1,5.19-1.91,24.11,24.11,0,0,1,5.47-.64,23.65,23.65,0,0,1,10.08,2.08,23,23,0,0,1,7.58,5.56,25,25,0,0,1,4.82,8.22,29.51,29.51,0,0,1,1.7,10.13,28.17,28.17,0,0,1-1.7,10,24.34,24.34,0,0,1-4.77,8,21.35,21.35,0,0,1-7.53,5.3A26.19,26.19,0,0,1,267,911a19.45,19.45,0,0,1-8.12-7.17h-.21V941H253.9V863.35h4.78Zm19-5.41a18.13,18.13,0,0,0-8.27,1.81,17.55,17.55,0,0,0-6,4.87,22,22,0,0,0-3.72,7.05,27.55,27.55,0,0,0-1.27,8.44,22.53,22.53,0,0,0,1.38,8,18.44,18.44,0,0,0,3.92,6.31,18.69,18.69,0,0,0,6.15,4.19,20.51,20.51,0,0,0,8.07,1.53,17.87,17.87,0,0,0,7.79-1.69,18.8,18.8,0,0,0,6.05-4.51,20.44,20.44,0,0,0,3.87-6.53,22.26,22.26,0,0,0,1.38-7.84,24.78,24.78,0,0,0-1.33-8.12,22.13,22.13,0,0,0-3.81-6.89,18.59,18.59,0,0,0-6.1-4.82A17.73,17.73,0,0,0,277.66,866.75Z" transform="translate(-105 -88.23)"/><path class="cls-7" d="M343.83,869.72H344a13.64,13.64,0,0,1,4.08-5.41,10.36,10.36,0,0,1,6.53-2,10.75,10.75,0,0,1,2.7.32,19.31,19.31,0,0,1,2.49.85l-2.54,4.24a6.68,6.68,0,0,0-1.64-.74,6.88,6.88,0,0,0-1.75-.21q-4,0-6.1,2.23a12.87,12.87,0,0,0-3,5.41,25.8,25.8,0,0,0-1,6.73q0,3.55-.05,6.21v25h-4.78v-49h4.78Z" transform="translate(-105 -88.23)"/><path class="cls-7" d="M411.88,862.29a26,26,0,0,1,10.12,2,25.45,25.45,0,0,1,8.17,5.35,25,25,0,0,1,5.46,8.12,26.39,26.39,0,0,1,0,20.25,24.91,24.91,0,0,1-5.46,8.12,25.31,25.31,0,0,1-8.17,5.36,26,26,0,0,1-10.12,2,24.54,24.54,0,0,1-9.92-2,25.55,25.55,0,0,1-8.07-5.51,26.87,26.87,0,0,1-5.46-8.11,24.32,24.32,0,0,1-2-9.81,25.51,25.51,0,0,1,15.48-23.66A25,25,0,0,1,411.88,862.29Zm-.33,4.46a19.52,19.52,0,0,0-8.11,1.7,19.83,19.83,0,0,0-6.47,4.61A22.07,22.07,0,0,0,391.19,888a21,21,0,0,0,1.54,7.95,21.3,21.3,0,0,0,4.29,6.73,20.58,20.58,0,0,0,6.47,4.62,19.18,19.18,0,0,0,8.06,1.69,22.27,22.27,0,0,0,8.38-1.58,20.35,20.35,0,0,0,6.79-4.46,21.1,21.1,0,0,0,4.51-6.69,20.55,20.55,0,0,0,1.65-8.26,21.28,21.28,0,0,0-1.65-8.44,21,21,0,0,0-4.51-6.73,20.34,20.34,0,0,0-6.73-4.46A22,22,0,0,0,411.55,866.75Z" transform="translate(-105 -88.23)"/><path class="cls-7" d="M479.77,912.36H475V867.81h-5.41v-4.46H475v-17.5h4.77v17.5h8.6v4.46h-8.6Z" transform="translate(-105 -88.23)"/><path class="cls-7" d="M542.52,862.29a26,26,0,0,1,10.12,2,25.45,25.45,0,0,1,8.17,5.35,25,25,0,0,1,5.46,8.12,26.39,26.39,0,0,1,0,20.25,24.91,24.91,0,0,1-5.46,8.12,25.31,25.31,0,0,1-8.17,5.36,26,26,0,0,1-10.12,2,24.54,24.54,0,0,1-9.92-2,25.55,25.55,0,0,1-8.07-5.51,26.87,26.87,0,0,1-5.46-8.11,24.32,24.32,0,0,1-2-9.81,25.51,25.51,0,0,1,15.48-23.66A25,25,0,0,1,542.52,862.29Zm-.33,4.46a19.52,19.52,0,0,0-8.11,1.7,19.83,19.83,0,0,0-6.47,4.61A22.07,22.07,0,0,0,521.83,888a21,21,0,0,0,1.54,7.95,21.3,21.3,0,0,0,4.29,6.73,20.58,20.58,0,0,0,6.47,4.62,19.18,19.18,0,0,0,8.06,1.69,22.27,22.27,0,0,0,8.38-1.58,20.35,20.35,0,0,0,6.79-4.46,21.1,21.1,0,0,0,4.51-6.69,20.54,20.54,0,0,0,1.64-8.26,21.28,21.28,0,0,0-1.64-8.44,21,21,0,0,0-4.51-6.73,20.34,20.34,0,0,0-6.73-4.46A22,22,0,0,0,542.19,866.75Z" transform="translate(-105 -88.23)"/><path class="cls-7" d="M644,874.71a25.9,25.9,0,0,0-7.74-5.89,21.56,21.56,0,0,0-9.55-2.07,19.15,19.15,0,0,0-8.06,1.7,19.94,19.94,0,0,0-6.42,4.61,21.64,21.64,0,0,0-4.24,6.73,21.08,21.08,0,0,0-1.54,8,22.07,22.07,0,0,0,5.78,14.8,20.8,20.8,0,0,0,6.37,4.66,18.24,18.24,0,0,0,8,1.75,21.58,21.58,0,0,0,10-2.38,25.61,25.61,0,0,0,8.06-6.42v6.47a26.8,26.8,0,0,1-8.27,5,26.34,26.34,0,0,1-9.55,1.75,24.85,24.85,0,0,1-10-2,24.6,24.6,0,0,1-7.95-5.46,25.09,25.09,0,0,1-5.25-8.11,26.22,26.22,0,0,1-1.91-10.08,25.92,25.92,0,0,1,1.91-10,24.84,24.84,0,0,1,5.3-8.11,24.58,24.58,0,0,1,8-5.41,25.27,25.27,0,0,1,10-2,27.56,27.56,0,0,1,9.07,1.49,25.73,25.73,0,0,1,8,4.56Z" transform="translate(-105 -88.23)"/><path class="cls-7" d="M702.4,862.29a26.13,26.13,0,0,1,10.13,2,25.41,25.41,0,0,1,8.16,5.35,25,25,0,0,1,5.46,8.12,26.39,26.39,0,0,1,0,20.25,24.91,24.91,0,0,1-5.46,8.12,25.27,25.27,0,0,1-8.16,5.36,26.12,26.12,0,0,1-10.13,2,24.58,24.58,0,0,1-9.92-2,25.5,25.5,0,0,1-8.06-5.51,26.69,26.69,0,0,1-5.46-8.11,24.16,24.16,0,0,1-2-9.81,25.5,25.5,0,0,1,15.49-23.66A24.92,24.92,0,0,1,702.4,862.29Zm-.32,4.46a19.56,19.56,0,0,0-8.12,1.7,19.89,19.89,0,0,0-6.46,4.61A22,22,0,0,0,681.71,888a21,21,0,0,0,1.54,7.95,21.33,21.33,0,0,0,4.3,6.73,20.36,20.36,0,0,0,6.47,4.62,19.15,19.15,0,0,0,8.06,1.69,22.31,22.31,0,0,0,8.38-1.58,20.45,20.45,0,0,0,6.79-4.46,21.08,21.08,0,0,0,4.5-6.69A20.55,20.55,0,0,0,723.4,888a21.28,21.28,0,0,0-1.65-8.44,20.92,20.92,0,0,0-4.5-6.73,20.39,20.39,0,0,0-6.74-4.46A22,22,0,0,0,702.08,866.75Z" transform="translate(-105 -88.23)"/><path class="cls-7" d="M770.1,912.36h-4.78V841.51h4.78Z" transform="translate(-105 -88.23)"/></svg>