<svg xmlns="http://www.w3.org/2000/svg" xmlns:xlink="http://www.w3.org/1999/xlink" viewBox="0 0 892.58 186.85"><defs><style>.cls-1{fill:#2d1a62;}.cls-2{fill:url(#Nepojmenovaný_přechod_7);}.cls-3{fill:url(#Nepojmenovaný_přechod_6);}.cls-4{fill:url(#Nepojmenovaný_přechod_5);}.cls-5{fill:url(#Nepojmenovaný_přechod_4);}.cls-6{fill:url(#Nepojmenovaný_přechod_3);}.cls-7{fill:url(#Nepojmenovaný_přechod_2);}</style><linearGradient id="Nepojmenovaný_přechod_7" x1="91.44" y1="74.13" x2="88.29" y2="38.87" gradientUnits="userSpaceOnUse"><stop offset="0.23" stop-color="#943259"/><stop offset="0.34" stop-color="#793070"/><stop offset="0.47" stop-color="#612e85"/><stop offset="0.59" stop-color="#522c92"/><stop offset="0.69" stop-color="#4d2c96"/></linearGradient><linearGradient id="Nepojmenovaný_přechod_6" x1="-5.55" y1="31.81" x2="130.06" y2="30.62" gradientUnits="userSpaceOnUse"><stop offset="0.05" stop-color="#fcb503"/><stop offset="0.14" stop-color="#fcb103"/><stop offset="0.85" stop-color="#f73f01"/></linearGradient><linearGradient id="Nepojmenovaný_přechod_5" x1="583.72" y1="14.39" x2="515.74" y2="273.36" gradientTransform="matrix(-1, 0, 0, 1, 674.32, -34.03)" gradientUnits="userSpaceOnUse"><stop offset="0.14" stop-color="#fcb103"/><stop offset="0.16" stop-color="#fcb503"/><stop offset="0.67" stop-color="#f73f01"/></linearGradient><linearGradient id="Nepojmenovaný_přechod_4" x1="89.94" y1="61.36" x2="92.85" y2="190.34" gradientUnits="userSpaceOnUse"><stop offset="0" stop-color="#943259"/><stop offset="0.13" stop-color="#f73f01"/><stop offset="0.18" stop-color="#f96902"/><stop offset="0.23" stop-color="#fa8a02"/><stop offset="0.28" stop-color="#fba203"/><stop offset="0.33" stop-color="#fcb003"/><stop offset="0.37" stop-color="#fcb503"/></linearGradient><linearGradient id="Nepojmenovaný_přechod_3" x1="175.05" y1="121.34" x2="-98.06" y2="145.58" gradientUnits="userSpaceOnUse"><stop offset="0.11" stop-color="#2d1a62"/><stop offset="0.12" stop-color="#2e1a63"/><stop offset="0.55" stop-color="#442788"/><stop offset="0.78" stop-color="#4d2c96"/></linearGradient><linearGradient id="Nepojmenovaný_přechod_2" x1="32.96" y1="156.76" x2="232.88" y2="92.45" gradientUnits="userSpaceOnUse"><stop offset="0" stop-color="#4d2c96"/><stop offset="0.57" stop-color="#943259"/></linearGradient></defs><g id="Vrstva_2" data-name="Vrstva 2"><path class="cls-1" d="M348.79,174.36H332.37V161H332a39,39,0,0,1-12.31,11.77A31.62,31.62,0,0,1,303,177.28a38.85,38.85,0,0,1-17.42-3.74,37.83,37.83,0,0,1-12.77-10.13,45.46,45.46,0,0,1-7.94-14.77,56.22,56.22,0,0,1-2.73-17.51A50.87,50.87,0,0,1,265,114.25,44,44,0,0,1,273,100a40,40,0,0,1,12.68-9.85,37,37,0,0,1,16.78-3.74,32,32,0,0,1,17,4.56A40.27,40.27,0,0,1,332,103.22h.37V89h16.42Zm-43.24-11.68a27.05,27.05,0,0,0,11.86-2.46,25.49,25.49,0,0,0,8.66-6.75,29.64,29.64,0,0,0,5.39-9.85,38.3,38.3,0,0,0,1.82-12,37.69,37.69,0,0,0-1.82-11.76,28.74,28.74,0,0,0-5.39-9.76,25.66,25.66,0,0,0-8.75-6.66A27.21,27.21,0,0,0,305.55,101a24.81,24.81,0,0,0-11.4,2.55,26.08,26.08,0,0,0-8.48,6.84,30.82,30.82,0,0,0-5.29,9.76,36,36,0,0,0-1.82,11.49,36.84,36.84,0,0,0,1.82,11.59,32.81,32.81,0,0,0,5.2,9.94,24.36,24.36,0,0,0,8.39,6.93A25.19,25.19,0,0,0,305.55,162.68Z" transform="translate(-62.55 -34.03)"/><path class="cls-1" d="M399.13,108.51a14,14,0,0,0-4.38-5.29,10.64,10.64,0,0,0-6.56-2.19A9.25,9.25,0,0,0,382,103.4a7.63,7.63,0,0,0-2.73,6,7.32,7.32,0,0,0,1.73,4.83,20.74,20.74,0,0,0,4.47,3.93,40.57,40.57,0,0,0,6.29,3.37c2.38,1,4.84,2.1,7.39,3.19a67.31,67.31,0,0,1,7.39,3.74,28.36,28.36,0,0,1,6.29,5,23.32,23.32,0,0,1,4.38,6.66,21.76,21.76,0,0,1,1.64,8.84,26.72,26.72,0,0,1-2.37,11.22,28.94,28.94,0,0,1-6.38,9,28.57,28.57,0,0,1-9.31,5.93,30.36,30.36,0,0,1-11.31,2.1,33.42,33.42,0,0,1-9.21-1.28,33.93,33.93,0,0,1-8.48-3.74,30.39,30.39,0,0,1-7.11-6,25.27,25.27,0,0,1-4.75-8.11l14-6.39a27.53,27.53,0,0,0,6.11,7.84,13.76,13.76,0,0,0,9.39,3.1,13.58,13.58,0,0,0,9.13-3.28,11,11,0,0,0,3.83-8.76,8.33,8.33,0,0,0-1.56-5.38,21.19,21.19,0,0,0-4.47-3.92l-16.05-8.57a61.1,61.1,0,0,1-6.66-3.83,27.07,27.07,0,0,1-5.19-4.47,17.68,17.68,0,0,1-3.38-5.66,21.73,21.73,0,0,1-1.18-7.57,23.76,23.76,0,0,1,2-9.67,25.92,25.92,0,0,1,5.38-7.93,24.6,24.6,0,0,1,7.94-5.29,25.11,25.11,0,0,1,9.85-1.92,24.36,24.36,0,0,1,13.86,4,27.68,27.68,0,0,1,9.49,10.94Z" transform="translate(-62.55 -34.03)"/><path class="cls-1" d="M493.77,113.25q-10-11.49-24.44-11.49a25.86,25.86,0,0,0-11.22,2.46,29.32,29.32,0,0,0-9,6.57,31.05,31.05,0,0,0-8.21,20.88,32.79,32.79,0,0,0,2.19,12.13,27.91,27.91,0,0,0,15.41,15.88A30.34,30.34,0,0,0,470.42,162a27.37,27.37,0,0,0,12.86-3,37.42,37.42,0,0,0,10.49-8.31v21a43,43,0,0,1-11.4,4.38,55.9,55.9,0,0,1-12.13,1.28,46.75,46.75,0,0,1-17.79-3.38,44.54,44.54,0,0,1-24.35-23.62,43.54,43.54,0,0,1-3.65-17.88A47,47,0,0,1,428,114.07a43.47,43.47,0,0,1,9.85-14.59,45.45,45.45,0,0,1,14.87-9.58,48.65,48.65,0,0,1,18.42-3.47,52.41,52.41,0,0,1,11.77,1.37,38.19,38.19,0,0,1,10.85,4.29Z" transform="translate(-62.55 -34.03)"/><path class="cls-1" d="M518.07,134.41A31.34,31.34,0,0,0,519.89,145a28.26,28.26,0,0,0,5.2,9,25.5,25.5,0,0,0,8.12,6.29,23.21,23.21,0,0,0,10.58,2.37q9.48,0,15.14-4.46a46.56,46.56,0,0,0,10.4-12.13l13.86,7.84a43.33,43.33,0,0,1-16.51,17.24,45,45,0,0,1-23.07,6.11A42.74,42.74,0,0,1,526,173.81a38.29,38.29,0,0,1-13.13-9.48,42.35,42.35,0,0,1-8.3-14.23,52.34,52.34,0,0,1-2.92-17.7,60.55,60.55,0,0,1,2.64-18.24,42.19,42.19,0,0,1,7.85-14.59,35.63,35.63,0,0,1,13-9.67,44.16,44.16,0,0,1,18.15-3.47A40.89,40.89,0,0,1,560.94,90a35,35,0,0,1,12.4,9.67,41.42,41.42,0,0,1,7.39,14.41,62.34,62.34,0,0,1,2.46,17.79v2.55Zm48.7-12.4q-1.46-9.67-7.57-15.51t-16-5.84a23.13,23.13,0,0,0-16.23,6A25.45,25.45,0,0,0,519,122Z" transform="translate(-62.55 -34.03)"/><path class="cls-1" d="M611.39,100.48h.37A25.09,25.09,0,0,1,622.61,90a32.49,32.49,0,0,1,14.87-3.56q8.92,0,14.86,2.83a22.74,22.74,0,0,1,9.31,7.84,32.44,32.44,0,0,1,4.74,11.77,73.65,73.65,0,0,1,1.37,14.59v50.9H651.34V125.47a81.16,81.16,0,0,0-.55-9.94,19,19,0,0,0-2.55-7.75,12.9,12.9,0,0,0-5.75-5,24,24,0,0,0-9.94-1.73q-8,0-12.31,3.19a18.05,18.05,0,0,0-6.2,8.12,35.85,35.85,0,0,0-2.28,10.94q-.37,6-.37,11.86v39.22H595V89h16.42Z" transform="translate(-62.55 -34.03)"/><path class="cls-1" d="M717.89,108.51a14.14,14.14,0,0,0-4.38-5.29,10.69,10.69,0,0,0-6.57-2.19,9.2,9.2,0,0,0-6.2,2.37,7.64,7.64,0,0,0-2.74,6,7.33,7.33,0,0,0,1.74,4.83,20.27,20.27,0,0,0,4.47,3.93,40.57,40.57,0,0,0,6.29,3.37c2.37,1,4.83,2.1,7.39,3.19a67.16,67.16,0,0,1,7.38,3.74,28.64,28.64,0,0,1,6.3,5,23.75,23.75,0,0,1,4.38,6.66,21.93,21.93,0,0,1,1.64,8.84,26.87,26.87,0,0,1-2.37,11.22,29.13,29.13,0,0,1-6.39,9,28.63,28.63,0,0,1-9.3,5.93,30.4,30.4,0,0,1-11.31,2.1A33.36,33.36,0,0,1,699,176a34,34,0,0,1-8.49-3.74,30.8,30.8,0,0,1-7.11-6,25.06,25.06,0,0,1-4.74-8.11l14-6.39a27.71,27.71,0,0,0,6.11,7.84,13.79,13.79,0,0,0,9.4,3.1,13.55,13.55,0,0,0,9.12-3.28,11,11,0,0,0,3.83-8.76,8.39,8.39,0,0,0-1.55-5.38,21.71,21.71,0,0,0-4.47-3.92l-16-8.57a60.16,60.16,0,0,1-6.66-3.83,26.84,26.84,0,0,1-5.2-4.47,17.86,17.86,0,0,1-3.38-5.66,21.73,21.73,0,0,1-1.18-7.57,23.77,23.77,0,0,1,2-9.67,25.75,25.75,0,0,1,5.38-7.93A24.55,24.55,0,0,1,698,88.35a25.11,25.11,0,0,1,9.85-1.92,24.42,24.42,0,0,1,13.87,4,27.74,27.74,0,0,1,9.48,10.94Z" transform="translate(-62.55 -34.03)"/><path class="cls-1" d="M766.5,174.36H750.08V89H766.5Z" transform="translate(-62.55 -34.03)"/><path class="cls-1" d="M825.09,86.43A46.39,46.39,0,0,1,843,89.9a43.92,43.92,0,0,1,14.5,9.58,46,46,0,0,1,0,64.75,43.92,43.92,0,0,1-14.5,9.58,48,48,0,0,1-35.85,0,44.26,44.26,0,0,1-14.41-9.58,46,46,0,0,1,0-64.75,44.26,44.26,0,0,1,14.41-9.58A46.19,46.19,0,0,1,825.09,86.43Zm0,15.69a28.15,28.15,0,0,0-11.4,2.37,29.9,29.9,0,0,0-17.78,27.37,28.94,28.94,0,0,0,2.28,11.4,30.82,30.82,0,0,0,6.2,9.48,28.61,28.61,0,0,0,9.3,6.48,28.6,28.6,0,0,0,22.8,0,28.75,28.75,0,0,0,9.31-6.48,31.18,31.18,0,0,0,6.2-9.48,28.94,28.94,0,0,0,2.28-11.4A29.52,29.52,0,0,0,852,120.37a29.15,29.15,0,0,0-15.51-15.88A28.09,28.09,0,0,0,825.09,102.12Z" transform="translate(-62.55 -34.03)"/><path class="cls-1" d="M898.68,100.48h.37A25.09,25.09,0,0,1,909.9,90a32.49,32.49,0,0,1,14.87-3.56q8.93,0,14.86,2.83a22.81,22.81,0,0,1,9.31,7.84,32.44,32.44,0,0,1,4.74,11.77,73.65,73.65,0,0,1,1.37,14.59v50.9H938.63V125.47a81.16,81.16,0,0,0-.55-9.94,19,19,0,0,0-2.55-7.75,12.9,12.9,0,0,0-5.75-5,24,24,0,0,0-9.94-1.73q-8,0-12.31,3.19a18.05,18.05,0,0,0-6.2,8.12,35.85,35.85,0,0,0-2.28,10.94q-.37,6-.37,11.86v39.22H882.26V89h16.42Z" transform="translate(-62.55 -34.03)"/><polygon class="cls-2" points="130.05 62.28 50.71 62.28 90.38 47.9 130.05 62.28"/><polygon class="cls-3" points="90.38 47.9 90.38 0 50.71 62.28 90.38 47.9"/><polygon class="cls-4" points="90.38 47.9 90.38 0 130.05 62.28 90.38 47.9"/><polygon class="cls-5" points="142.33 81.55 38.45 81.55 90.38 95.82 142.33 81.55"/><polygon class="cls-6" points="0 141.83 90.38 180.76 90.38 95.82 38.45 81.55 0 141.83"/><polygon class="cls-7" points="180.76 141.83 90.38 180.76 90.38 95.82 142.33 81.55 180.76 141.83"/><polygon class="cls-1" points="684.53 17.73 706.97 17.73 695.75 0.11 684.53 17.73"/><path class="cls-1" d="M751.29,194.15h.08a6.91,6.91,0,0,1,1.38-1.63,8.58,8.58,0,0,1,1.81-1.22,9.73,9.73,0,0,1,2.08-.74,10,10,0,0,1,2.17-.24,9.56,9.56,0,0,1,4,.8,9.2,9.2,0,0,1,3,2.16,9.8,9.8,0,0,1,1.93,3.19,11.36,11.36,0,0,1,.67,3.94,10.77,10.77,0,0,1-.67,3.87,9.57,9.57,0,0,1-1.91,3.09,8.58,8.58,0,0,1-3,2.06,10.29,10.29,0,0,1-4,.74,10.09,10.09,0,0,1-4.29-.93,7.73,7.73,0,0,1-3.24-2.78h-.08v14.42h-1.9V190.73h1.9Zm7.57-2.11a7.41,7.41,0,0,0-3.3.71,6.9,6.9,0,0,0-2.41,1.89,8.53,8.53,0,0,0-1.48,2.74,10.37,10.37,0,0,0-.51,3.27,8.47,8.47,0,0,0,.55,3.11,7,7,0,0,0,1.57,2.45,7.25,7.25,0,0,0,2.45,1.63,8.27,8.27,0,0,0,3.21.6,7.29,7.29,0,0,0,3.11-.66,7.59,7.59,0,0,0,2.41-1.75,8,8,0,0,0,1.54-2.54,8.36,8.36,0,0,0,.55-3,9.47,9.47,0,0,0-.53-3.15,8.33,8.33,0,0,0-1.52-2.68,7.31,7.31,0,0,0-5.64-2.58Z" transform="translate(-62.55 -34.03)"/><path class="cls-1" d="M785.23,193.2h.08a5.32,5.32,0,0,1,1.63-2.1,4.2,4.2,0,0,1,2.6-.78,4.58,4.58,0,0,1,1.08.12,7.18,7.18,0,0,1,1,.33l-1,1.65a2.34,2.34,0,0,0-.66-.29,2.53,2.53,0,0,0-.7-.09,3.19,3.19,0,0,0-2.43.87,5.06,5.06,0,0,0-1.18,2.1,9.7,9.7,0,0,0-.38,2.62c0,.92,0,1.72,0,2.41v9.72h-1.91v-19h1.91Z" transform="translate(-62.55 -34.03)"/><path class="cls-1" d="M812.35,190.32a10.64,10.64,0,0,1,4,.76,10.12,10.12,0,0,1,3.25,2.08,9.76,9.76,0,0,1,2.18,3.15,10.05,10.05,0,0,1,0,7.86,9.7,9.7,0,0,1-2.18,3.16,10.09,10.09,0,0,1-3.25,2.07,10.64,10.64,0,0,1-4,.77,10,10,0,0,1-4-.79,10.16,10.16,0,0,1-5.39-5.29,9.11,9.11,0,0,1-.81-3.81,9.54,9.54,0,0,1,.79-3.87,9.89,9.89,0,0,1,2.15-3.17,10.24,10.24,0,0,1,7.21-2.92Zm-.13,1.72a8.11,8.11,0,0,0-3.23.66,7.88,7.88,0,0,0-2.58,1.8,8.39,8.39,0,0,0-2.3,5.78,8,8,0,0,0,.61,3.09,8.36,8.36,0,0,0,1.71,2.62,8.23,8.23,0,0,0,2.58,1.79,7.81,7.81,0,0,0,3.21.66,9,9,0,0,0,3.34-.62,8,8,0,0,0,2.71-1.73,8.11,8.11,0,0,0,1.79-2.6,7.75,7.75,0,0,0,.66-3.21,8,8,0,0,0-.66-3.27,8,8,0,0,0-4.48-4.35A9,9,0,0,0,812.22,192Z" transform="translate(-62.55 -34.03)"/><path class="cls-1" d="M839.41,209.76h-1.9v-17.3h-2.16v-1.73h2.16v-6.8h1.9v6.8h3.43v1.73h-3.43Z" transform="translate(-62.55 -34.03)"/><path class="cls-1" d="M864.42,190.32a10.64,10.64,0,0,1,4,.76,10.12,10.12,0,0,1,3.25,2.08,9.76,9.76,0,0,1,2.18,3.15,10.05,10.05,0,0,1,0,7.86,9.7,9.7,0,0,1-2.18,3.16,10.09,10.09,0,0,1-3.25,2.07,10.64,10.64,0,0,1-4,.77,10,10,0,0,1-3.95-.79,10.16,10.16,0,0,1-5.39-5.29,9.11,9.11,0,0,1-.81-3.81,9.54,9.54,0,0,1,.79-3.87,9.89,9.89,0,0,1,2.15-3.17,10.24,10.24,0,0,1,7.21-2.92Zm-.13,1.72a8.11,8.11,0,0,0-3.23.66,7.88,7.88,0,0,0-2.58,1.8,8.39,8.39,0,0,0-2.3,5.78,8,8,0,0,0,.61,3.09A8.36,8.36,0,0,0,858.5,206a8.23,8.23,0,0,0,2.58,1.79,7.81,7.81,0,0,0,3.21.66,9,9,0,0,0,3.34-.62,8,8,0,0,0,2.71-1.73,8.11,8.11,0,0,0,1.79-2.6,7.75,7.75,0,0,0,.66-3.21,8,8,0,0,0-.66-3.27,8,8,0,0,0-4.47-4.35A9.06,9.06,0,0,0,864.29,192Z" transform="translate(-62.55 -34.03)"/><path class="cls-1" d="M904.87,195.14a10.18,10.18,0,0,0-3.09-2.29A8.73,8.73,0,0,0,898,192a7.87,7.87,0,0,0-5.77,2.46,8.32,8.32,0,0,0-1.69,2.61,8,8,0,0,0-.61,3.09,8.13,8.13,0,0,0,.61,3.11A8.46,8.46,0,0,0,892.2,206a8.58,8.58,0,0,0,2.54,1.81,7.51,7.51,0,0,0,3.19.68,8.79,8.79,0,0,0,4-.93,10.28,10.28,0,0,0,3.21-2.49v2.51a11.05,11.05,0,0,1-3.3,2,10.83,10.83,0,0,1-3.8.68,10.16,10.16,0,0,1-4-.79,9.66,9.66,0,0,1-5.26-5.27,10.34,10.34,0,0,1,0-7.78,9.64,9.64,0,0,1,2.11-3.15,10,10,0,0,1,3.19-2.1,10.33,10.33,0,0,1,4-.76,11.33,11.33,0,0,1,3.61.57,10.63,10.63,0,0,1,3.2,1.77Z" transform="translate(-62.55 -34.03)"/><path class="cls-1" d="M928.15,190.32a10.59,10.59,0,0,1,4,.76,10.16,10.16,0,0,1,3.26,2.08,9.92,9.92,0,0,1,2.18,3.15,9.89,9.89,0,0,1-2.18,11,10.14,10.14,0,0,1-3.26,2.07,10.59,10.59,0,0,1-4,.77,10.07,10.07,0,0,1-4-.79,10.2,10.2,0,0,1-3.21-2.14,10.39,10.39,0,0,1-2.18-3.15,9.26,9.26,0,0,1-.8-3.81,9.7,9.7,0,0,1,.78-3.87,10,10,0,0,1,5.39-5.31A10.2,10.2,0,0,1,928.15,190.32ZM928,192a8.07,8.07,0,0,0-3.23.66,7.88,7.88,0,0,0-2.58,1.8,8.46,8.46,0,0,0-2.31,5.78,8,8,0,0,0,.62,3.09,8.17,8.17,0,0,0,4.29,4.41,7.75,7.75,0,0,0,3.21.66,9.05,9.05,0,0,0,3.34-.62,8.22,8.22,0,0,0,2.71-1.73,8.11,8.11,0,0,0,1.79-2.6,7.75,7.75,0,0,0,.66-3.21,8,8,0,0,0-.66-3.27,8,8,0,0,0-4.48-4.35A9,9,0,0,0,928,192Z" transform="translate(-62.55 -34.03)"/><path class="cls-1" d="M955.13,209.76h-1.9V182.25h1.9Z" transform="translate(-62.55 -34.03)"/></g></svg>