<?xml version='1.0' encoding='iso-8859-1'?>
<svg version="1.1" xmlns="http://www.w3.org/2000/svg" viewBox="0 0 463 463" xmlns:xlink="http://www.w3.org/1999/xlink" enable-background="new 0 0 463 463">
  <g>
    <g>
      <path d="m351,151.5c0-65.893-53.607-119.5-119.5-119.5s-119.5,53.607-119.5,119.5 53.607,119.5 119.5,119.5 119.5-53.607 119.5-119.5zm-223.728,7.5h16.228c4.142,0 7.5-3.357 7.5-7.5s-3.358-7.5-7.5-7.5h-16.228c3.681-51.656 45.072-93.047 96.728-96.728v16.228c0,4.143 3.358,7.5 7.5,7.5s7.5-3.357 7.5-7.5v-16.228c51.66,3.682 93.053,45.079 96.729,96.74-0.077-0.002-0.152-0.011-0.229-0.011h-16c-4.142,0-7.5,3.357-7.5,7.5s3.358,7.5 7.5,7.5h16c0.077,0 0.152-0.009 0.229-0.011-3.676,51.661-45.069,93.058-96.729,96.74v-16.23c0-4.143-3.358-7.5-7.5-7.5s-7.5,3.357-7.5,7.5v16.228c-51.656-3.681-93.047-45.072-96.728-96.728z"/>
      <path d="m221.061,172.546c3.147,1.568 6.691,2.454 10.439,2.454 10.336,0 19.128-6.71 22.266-16h33.734c4.142,0 7.5-3.357 7.5-7.5s-3.358-7.5-7.5-7.5h-33.734c-0.342-1.012-0.749-1.994-1.22-2.939l40.258-40.257c2.929-2.93 2.929-7.678 0-10.607-2.929-2.928-7.678-2.928-10.606,0l-40.258,40.258c-3.147-1.567-6.69-2.454-10.439-2.454-10.336,0-19.128,6.71-22.266,16h-9.735c-4.142,0-7.5,3.357-7.5,7.5s3.358,7.5 7.5,7.5h9.734c0.342,1.012 0.749,1.993 1.219,2.939l-13.11,13.11c-2.929,2.93-2.929,7.678 0,10.607 1.464,1.464 3.384,2.196 5.303,2.196s3.839-0.732 5.303-2.196l13.112-13.111zm10.439-29.546c4.687,0 8.5,3.813 8.5,8.5s-3.813,8.5-8.5,8.5-8.5-3.813-8.5-8.5 3.813-8.5 8.5-8.5z"/>
      <path d="m383.5,400h-16.5v-32.5c0-12.958-10.542-23.5-23.5-23.5h-104.5v-41.187c80.067-3.923 144-70.291 144-151.313 0-83.537-67.962-151.5-151.5-151.5s-151.5,67.963-151.5,151.5c0,81.022 63.933,147.391 144,151.313v41.187h-104.5c-12.958,0-23.5,10.542-23.5,23.5v32.5h-16.5c-8.547,0-15.5,6.953-15.5,15.5v32c0,8.547 6.953,15.5 15.5,15.5h48c8.547,0 15.5-6.953 15.5-15.5v-32c0-8.547-6.953-15.5-15.5-15.5h-16.5v-32.5c0-4.687 3.813-8.5 8.5-8.5h104.5v41h-16.5c-8.547,0-15.5,6.953-15.5,15.5v32c0,8.547 6.953,15.5 15.5,15.5h48c8.547,0 15.5-6.953 15.5-15.5v-32c0-8.547-6.953-15.5-15.5-15.5h-16.5v-41h104.5c4.687,0 8.5,3.813 8.5,8.5v32.5h-16.5c-8.547,0-15.5,6.953-15.5,15.5v32c0,8.547 6.953,15.5 15.5,15.5h48c8.547,0 15.5-6.953 15.5-15.5v-32c0-8.547-6.953-15.5-15.5-15.5zm-288.5-248.5c0-75.267 61.234-136.5 136.5-136.5s136.5,61.233 136.5,136.5-61.234,136.5-136.5,136.5-136.5-61.233-136.5-136.5zm33,264v32c0,0.275-0.224,0.5-0.5,0.5h-48c-0.276,0-0.5-0.225-0.5-0.5v-32c0-0.275 0.224-0.5 0.5-0.5h48c0.276,0 0.5,0.225 0.5,0.5zm128,0v32c0,0.275-0.224,0.5-0.5,0.5h-48c-0.276,0-0.5-0.225-0.5-0.5v-32c0-0.275 0.224-0.5 0.5-0.5h48c0.276,0 0.5,0.225 0.5,0.5zm128,32c0,0.275-0.224,0.5-0.5,0.5h-48c-0.276,0-0.5-0.225-0.5-0.5v-32c0-0.275 0.224-0.5 0.5-0.5h48c0.276,0 0.5,0.225 0.5,0.5v32z"/>
    </g>
  </g>
</svg>
