<svg width="271" height="100" viewBox="0 0 271 100" fill="none" xmlns="http://www.w3.org/2000/svg">
<path fill-rule="evenodd" clip-rule="evenodd" d="M43.9372 0.246521C36.336 1.22974 28.8229 3.99552 22.6264 8.0914C11.653 15.3449 4.01321 26.3376 1.23262 38.8742C-3.33926 59.4875 5.03057 80.2098 22.6264 91.841C36.241 100.841 53.9429 102.52 69.175 96.257C81.9687 90.9967 92.5238 79.9629 97.2047 66.9561C99.114 61.6503 100.01 56.2254 100.01 49.9662C100.01 38.3953 96.7912 28.7981 89.8067 19.5424C87.6188 16.643 83.084 12.1333 80.1182 9.90729C73.3388 4.81893 65.101 1.45438 56.7386 0.358178C53.4945 -0.0670202 46.8122 -0.125495 43.9372 0.246521ZM45.4522 2.10475C32.3957 3.3642 19.7876 10.3746 11.9435 20.7362L10.547 22.581L49.9024 22.6479C71.5478 22.6849 89.3143 22.6582 89.3839 22.5889C89.8147 22.1581 83.5984 15.3605 80.3074 12.6633C70.7474 4.82872 57.8182 0.912233 45.4522 2.10475ZM118.805 22.3383C116.234 23.0167 114.059 24.2659 112.206 26.1283C109.476 28.8732 108.222 32.0298 108.222 36.1587C108.222 43.0545 112.27 48.2609 118.963 49.9728C122.721 50.9338 126.783 50.5565 129.766 48.97C131.335 48.1349 134.06 45.4673 134.799 44.0425C135.409 42.8661 135.634 43.0709 131.792 41.3114C129.695 40.3512 129.005 40.1363 128.913 40.4147C128.678 41.119 126.902 42.8651 125.902 43.3755C122.678 45.0202 118.51 43.5996 116.604 40.2065C115.958 39.0573 115.78 38.3853 115.685 36.7334C115.52 33.8936 116.083 32.2809 117.856 30.5076C120.155 28.2083 123.223 27.6222 125.922 28.9669C127.155 29.5813 128.599 31.0582 128.926 32.0388C129.033 32.3613 135.21 29.5125 135.21 29.1404C135.21 28.7303 133.82 26.8173 132.595 25.5425C131.167 24.0555 129.306 22.9323 127.29 22.341C125.475 21.8086 120.819 21.807 118.805 22.3383ZM251.438 22.2997C246.467 23.5041 242.347 27.6159 241.19 32.5277C238.918 42.1668 245.593 50.4861 255.599 50.4861C262.289 50.4861 267.591 46.9183 269.66 41.0235C270.415 38.8737 270.592 34.9951 270.043 32.6627C268.854 27.6217 264.96 23.6774 259.821 22.3098C258.052 21.839 253.362 21.8335 251.438 22.2997ZM138.317 22.3407C138.209 22.4487 138.121 28.7084 138.121 36.2516V49.9662H141.825H145.529V45.3358V40.7055H147.25H148.971L151.281 45.3358L153.592 49.9662H157.786H161.979L161.058 48.3125C160.551 47.4031 159.301 45.1461 158.28 43.2972L156.423 39.9355L157.565 39.2664C160.746 37.4018 162.361 33.6835 161.665 29.8242C161.08 26.5784 159.102 24.1045 156.152 22.9297C154.739 22.3672 154.215 22.3293 146.585 22.2396C142.145 22.1875 138.425 22.233 138.317 22.3407ZM161.978 22.4039C162.026 22.5246 164.418 26.3151 167.292 30.8272L172.518 39.0306V44.4984V49.9662H176.09H179.661V44.4095V38.8528L184.716 30.8651C187.497 26.4718 189.831 22.7215 189.904 22.5307C190.092 22.0407 182.238 22.0253 181.837 22.5148C181.688 22.6968 180.352 24.9292 178.868 27.4759C177.384 30.0226 176.132 32.1459 176.085 32.1946C176.039 32.243 174.656 30.0107 173.012 27.2335L170.022 22.1841H165.956C163.72 22.1841 161.929 22.283 161.978 22.4039ZM192.097 36.0751V49.9662H195.669H199.241V45.361V40.756L204.07 40.6623C208.634 40.574 208.981 40.5306 210.393 39.8704C212.305 38.9769 213.929 37.3478 214.797 35.4528C215.673 33.5425 215.779 30.2197 215.032 28.0792C214.075 25.3354 211.253 23.0448 208.123 22.4717C207.24 22.31 203.388 22.1841 199.325 22.1841H192.097V36.0751ZM217.145 22.3606C217.048 22.4574 216.969 23.883 216.969 25.5285V28.5202L220.872 28.5933L224.774 28.6666L224.843 39.3164L224.913 49.9662H228.482H232.051V39.2502V28.5343H235.887H239.724V25.3592V22.1841H228.523C222.362 22.1841 217.242 22.2634 217.145 22.3606ZM9.0632 24.8961C7.96541 26.2601 4.23732 34.5233 4.23732 35.5928C4.23732 35.8616 5.76031 35.9494 11.3863 36.0047L18.5353 36.0751L17.7172 37.0673L16.8991 38.0596H10.1925H3.48588L3.08608 39.8456C2.62067 41.9229 2.18938 45.1096 2.0293 47.651L1.91685 49.437H9.78183H17.6471L18.353 50.4292L19.0592 51.4214L10.5899 51.4913L2.12059 51.5611L2.12165 53.0788C2.12297 54.7817 2.71618 58.7263 3.352 61.2568L3.77243 62.9312H23.0667H42.361L41.6222 63.8572L40.8832 64.7833H22.6926C10.3012 64.7833 4.50191 64.8709 4.50191 65.058C4.50191 66.2203 7.9805 73.6233 9.43919 75.5654L10.0853 76.4253H24.605H39.125L39.7982 77.2853L40.4713 78.1452L25.8857 78.2775L11.3001 78.4098L12.9165 80.4193C22.5312 92.3702 38.7686 99.2943 53.8482 97.8734C63.8461 96.9315 72.9877 93.2677 80.3074 87.2691C82.2889 85.6453 86.6245 81.252 88.0715 79.402L88.9511 78.2775H69.9587H50.9663L51.8638 77.3514L52.7613 76.4253H71.4764H90.1912L91.1075 74.9039C92.4243 72.7174 94.1127 69.2732 95.0102 66.9421C95.437 65.8343 95.786 64.8952 95.786 64.8555C95.786 64.8159 86.6398 64.7833 75.4614 64.7833H55.1368L54.696 63.8588L54.2552 62.9343L75.3323 62.8666L96.4094 62.7989L96.6324 62.0051C96.9862 60.7459 97.8292 55.5729 98.022 53.4778L98.1983 51.5654L93.1589 51.4934L88.1192 51.4214L89.0286 50.4292L89.938 49.437H94.0868H98.2356L98.0488 46.9895C97.8572 44.4812 96.9621 38.729 96.6967 38.2993C96.6147 38.1667 93.6687 38.0596 90.1034 38.0596H83.6579L83.1073 37.1684C82.8043 36.6784 82.5564 36.204 82.5564 36.1145C82.5564 36.0251 85.5833 35.9201 89.2826 35.8812L96.0088 35.8105L95.3761 33.9584C95.0282 32.9397 93.8965 30.4097 92.8614 28.3358L90.9791 24.5654H50.1543C17.8127 24.5654 9.27408 24.6342 9.0632 24.8961ZM253.481 28.5012C252.143 28.9399 251.181 29.5794 250.108 30.7425C247.328 33.7592 247.624 39.5534 250.697 42.2512C252.163 43.5385 253.363 43.96 255.599 43.9727C257.235 43.9819 257.816 43.8631 258.907 43.2956C261.406 41.9946 262.724 39.8453 262.949 36.703C263.183 33.4282 261.589 30.3682 258.941 29.0105C257.756 28.4033 254.66 28.1144 253.481 28.5012ZM145.529 31.4239V34.3553L148.903 34.3542C152.897 34.3532 153.758 34.0222 154.278 32.2864C154.649 31.0452 154.287 30.0861 153.118 29.2196C152.469 28.7388 151.924 28.6552 148.951 28.5795L145.529 28.4922V31.4239ZM199.241 31.4649V34.3952L202.94 34.3092C206.517 34.2259 206.662 34.2002 207.326 33.5358C208.851 32.0086 208.224 29.3786 206.201 28.8166C205.647 28.6629 203.855 28.5366 202.218 28.5359L199.241 28.5343V31.4649ZM20.3075 35.0792C17.1642 38.5329 14.6305 41.3969 14.677 41.4434C14.8551 41.6215 24.228 38.2593 24.4944 37.922C24.7847 37.5545 26.3188 29.0955 26.1296 28.9063C26.0709 28.8478 23.4512 31.6255 20.3075 35.0792ZM26.6006 33.4199C26.1754 35.9616 25.8812 38.0929 25.9468 38.1561C26.2109 38.4101 34.4799 41.5082 34.5928 41.3955C34.7434 41.2447 27.7793 28.7989 27.5441 28.7989C27.4505 28.7989 27.0258 30.8783 26.6006 33.4199ZM74.7393 41.132C71.8619 44.2769 69.2168 47.1956 68.8614 47.6182C68.2219 48.3781 68.2658 48.3686 73.1825 46.6696C75.9146 45.7256 78.234 44.8606 78.337 44.7476C78.5113 44.5561 80.174 35.4136 80.0343 35.4136C79.9994 35.4136 77.6165 37.9868 74.7393 41.132ZM81.1316 36.1222C80.5791 38.8314 79.6385 44.5198 79.7083 44.7294C79.7869 44.9651 88.4031 48.4413 88.5483 48.2958C88.6171 48.227 81.6626 35.7547 81.4202 35.5123C81.3454 35.4372 81.2152 35.7118 81.1316 36.1222ZM32.5486 36.1101C32.5486 36.2021 32.7965 36.6784 33.0995 37.1684L33.6501 38.0596H55.1408H76.6317L77.4773 37.1869C77.9425 36.7072 78.3229 36.231 78.3229 36.1286C78.3229 36.0264 68.0237 35.9428 55.4358 35.9428C42.8478 35.9428 32.5486 36.018 32.5486 36.1101ZM25.5356 39.7434C25.1789 41.3114 24.3241 46.5887 24.396 46.7794C24.4667 46.9673 34.1687 43.1424 34.5246 42.7865C34.595 42.7164 32.6301 41.8755 30.1583 40.9185C25.829 39.2418 25.6594 39.1989 25.5356 39.7434ZM18.9907 41.0566C16.4091 41.9549 14.2958 42.7598 14.2942 42.845C14.2929 42.9302 16.2172 43.916 18.5708 45.036C21.4464 46.4043 22.9103 46.9739 23.0344 46.7734C23.1358 46.609 23.4244 45.2062 23.6758 43.6562C23.9272 42.106 24.1957 40.5102 24.2725 40.1101C24.3714 39.5963 24.3055 39.3886 24.0486 39.4029C23.8486 39.414 21.5726 40.158 18.9907 41.0566ZM18.1879 49.2031L21.8327 53.9967L22.2798 51.6506C22.5259 50.3604 22.7341 49.097 22.7429 48.8433C22.7545 48.508 21.676 47.8397 18.793 46.3958C16.612 45.3035 14.7636 44.4098 14.6852 44.4098C14.6069 44.4098 16.1831 46.5667 18.1879 49.2031ZM28.4474 46.5688C26.119 47.5835 24.1327 48.4951 24.0335 48.5945C23.8084 48.8202 22.9905 53.4612 23.1479 53.6186C23.2559 53.7266 33.0778 44.9723 33.0778 44.7683C33.0778 44.5743 32.5767 44.7693 28.4474 46.5688ZM73.0473 47.7513C70.3638 48.685 68.1137 49.5037 68.047 49.5704C67.9091 49.7079 75.4452 53.3376 76.3298 53.5596C76.8785 53.6974 76.9333 53.539 77.5122 50.1408C77.8461 48.181 78.0758 46.4596 78.0226 46.3156C77.9694 46.1714 75.7305 46.8175 73.0473 47.7513ZM79.2543 46.8572C79.1715 47.3301 78.873 49.0216 78.5912 50.616C78.3094 52.2102 78.1287 53.5646 78.1899 53.6255C78.2507 53.6866 80.5669 52.8037 83.337 51.6638C86.1067 50.5239 88.2848 49.5076 88.1769 49.4052C87.9983 49.2359 79.7652 45.9973 79.5131 45.9973C79.4538 45.9973 79.3374 46.3844 79.2543 46.8572ZM27.9786 50.2501C27.4362 50.6972 26.9922 51.1735 26.9922 51.3085C26.9922 51.4569 35.03 51.5537 47.375 51.5537C66.7071 51.5537 67.7448 51.5299 67.5057 51.0907C67.367 50.8359 67.0008 50.3599 66.6923 50.0323L66.1311 49.437H47.548H28.965L27.9786 50.2501ZM68.7236 51.6199C68.8638 51.8019 70.4508 53.8927 72.25 56.2664C74.9621 59.8444 75.554 60.493 75.7141 60.0603C75.9789 59.3444 76.5883 55.2855 76.4502 55.1572C76.2517 54.9728 68.8103 51.2891 68.6365 51.2891C68.5439 51.2891 68.5831 51.4381 68.7236 51.6199ZM82.494 53.232C80.0587 54.2936 77.975 55.2527 77.8636 55.3633C77.6419 55.5837 76.729 60.3585 76.8791 60.5139C76.9301 60.5668 78.9132 58.8506 81.2856 56.7003C86.2652 52.1872 87.2251 51.2868 87.0494 51.2955C86.9793 51.2989 84.9295 52.1702 82.494 53.232ZM182.572 54.5949C177.113 55.8274 172.912 59.8712 171.711 65.0479C171.238 67.09 171.303 70.7234 171.847 72.6081C172.889 76.2171 175.266 79.2641 178.3 80.8816C180.514 82.0617 181.727 82.4493 184.261 82.7864C189.103 83.4307 193.936 81.9265 197.48 78.672L198.712 77.5411V71.9559V66.3709H191.965H185.218V69.546V72.7211H188.261H191.304V73.8591C191.304 74.9529 191.255 75.0209 190.047 75.6181C189.184 76.0443 188.156 76.2782 186.768 76.3645C185.019 76.473 184.553 76.4021 183.326 75.8403C180.479 74.5367 178.799 71.927 178.78 68.7765C178.754 64.5589 181.081 61.5733 185.007 60.7848C187.266 60.331 189.181 60.9758 190.94 62.7819L192.296 64.175L195.105 62.6735C196.649 61.8479 197.986 61.1002 198.074 61.0118C198.53 60.5554 195.607 57.3192 193.645 56.1084C190.96 54.4513 186.131 53.7911 182.572 54.5949ZM255.706 54.5928C251.195 55.5739 248.313 58.531 247.994 62.5041C247.591 67.5261 250.378 70.1926 257.848 71.9313C262.052 72.9097 263.232 73.3929 263.44 74.221C263.664 75.1167 262.917 76.0877 261.753 76.4108C258.869 77.2117 254.41 76.1004 251.992 73.9779C251.507 73.5519 250.998 73.2436 250.861 73.2928C250.561 73.4005 247.132 78.2124 247.132 78.5249C247.132 78.8305 248.579 79.8989 250.327 80.884C252.619 82.1754 255.479 82.8208 259.039 82.8496C264.813 82.8962 268.184 81.31 270.088 77.6499C270.705 76.464 270.795 75.9763 270.803 73.7794C270.815 70.8491 270.385 69.7666 268.549 68.1084C266.992 66.7016 265.215 65.9613 260.687 64.8323C258.528 64.2941 256.44 63.6432 256.048 63.3863C255.15 62.7981 255.14 62.0429 256.019 61.164C256.677 60.5067 256.797 60.4848 258.996 60.6157C261.44 60.7615 263.42 61.3746 265.153 62.5221C265.714 62.8925 266.263 63.1889 266.376 63.1804C266.655 63.1595 270.152 58.521 270.152 58.172C270.152 57.7044 267.048 55.8536 265.307 55.2831C261.993 54.1973 258.634 53.9557 255.706 54.5928ZM117.747 64.3997C117.747 72.5263 117.683 74.1943 117.346 74.8465C116.459 76.5616 113.812 76.9424 111.529 75.6832L110.206 74.9534L108.706 77.6075C106.979 80.6628 106.983 80.689 109.439 81.8503C111.379 82.7681 114.314 83.1409 116.837 82.7901C120.585 82.2688 123.157 80.3908 124.415 77.258C124.997 75.8075 125.017 75.4559 125.101 65.2463L125.189 54.7288H121.468H117.747V64.3997ZM129.918 68.6273V82.5258L133.556 82.4522L137.195 82.3786L137.263 68.5537L137.332 54.7288H133.625H129.918V68.6273ZM142.09 68.6199V82.5109H145.661H149.233V74.7055C149.233 70.4125 149.323 66.9064 149.432 66.9143C149.541 66.922 152.172 70.4345 155.279 74.7198L160.927 82.5109H164.341H167.755V68.6199V54.7288H164.187H160.619L160.549 62.1591L160.479 69.5891L155.054 62.1702L149.63 54.7511L145.86 54.7399L142.09 54.7288V68.6199ZM202.681 68.6199V82.5109H211.809H220.938V79.3411V76.1716L215.448 76.0999L209.957 76.0285L209.888 65.3786L209.819 54.7288H206.25H202.681V68.6199ZM224.642 68.6199V82.5109H234.829H245.016V79.3403V76.17L238.467 76.0991L231.918 76.0285L231.842 73.8456L231.765 71.6627H238.258H244.751V68.4924V65.322L238.335 65.2511L231.918 65.1802L231.841 63.1296L231.764 61.079H238.39H245.016V57.9039V54.7288H234.829H224.642V68.6199ZM43 63.237C39.9439 66.5934 37.4036 69.4465 37.3547 69.5774C37.2795 69.778 47.0636 66.5439 47.2192 66.3164C47.3649 66.1031 48.7223 57.6094 48.6456 57.3898C48.5964 57.2496 46.056 59.881 43 63.237ZM49.9172 57.5465C49.6502 58.4368 48.345 66.3804 48.4519 66.4672C48.6241 66.6071 57.0088 69.8121 57.2006 69.8113C57.3676 69.8105 50.7009 57.7632 50.267 57.2819C50.1556 57.158 49.9982 57.2771 49.9172 57.5465ZM48.0492 68.1931C47.5581 70.6795 46.8167 75.1706 46.8858 75.2397C46.9741 75.3281 56.7868 71.3261 56.9966 71.116C57.0649 71.0478 55.1103 70.2066 52.6531 69.247L48.1857 67.502L48.0492 68.1931ZM41.6246 69.379C39.1219 70.2712 37.0083 71.0705 36.9281 71.1555C36.848 71.2404 38.7528 72.2363 41.1613 73.369C43.5699 74.5018 45.5731 75.3847 45.6134 75.3315C45.7097 75.2035 46.8429 68.45 46.8392 68.0246C46.8352 67.5427 46.6164 67.5996 41.6246 69.379ZM37.3113 72.8679C37.3113 72.9507 38.8888 75.0971 40.8171 77.638L44.3229 82.258L44.6415 80.8631C44.8167 80.0958 45.0379 78.8503 45.1329 78.0949L45.3059 76.7217L41.3087 74.7198C39.11 73.6185 37.3113 72.7854 37.3113 72.8679ZM50.9467 74.9362L46.4577 76.8683L45.9899 79.4734C45.7327 80.9062 45.5506 82.1069 45.5853 82.1418C45.6573 82.2135 53.3638 75.2998 54.7698 73.9019C55.2768 73.3979 55.634 72.9899 55.5636 72.9949C55.4932 72.9999 53.4156 73.8734 50.9467 74.9362Z" fill="white"/>
</svg>
