<svg width="348" height="100" viewBox="0 0 348 100" fill="none" xmlns="http://www.w3.org/2000/svg">
<g clip-path="url(#clip0_417_19)">
<path d="M122.27 93.3471L64.6474 6.7793L6.8468 93.3471H87.3741L64.6474 60.3066L53.3737 77.4723H41.3841L64.6468 42.9564L98.2902 93.3471H122.27Z" fill="url(#paint0_linear_417_19)"/>
<path d="M175.778 49.4872C175.106 49.4872 174.818 49.7751 174.818 50.4469V56.206C174.818 56.8779 175.106 57.1658 175.778 57.1658H194.879V67.2442C191.135 73.3872 184.416 76.9387 175.49 76.9387C161.189 76.9387 152.358 67.7243 152.358 50.063C152.358 32.498 162.724 23.1868 174.53 23.1868C183.745 23.1868 191.231 26.8342 193.631 35.6656C193.823 36.3374 194.207 36.6253 194.783 36.6253H200.927C201.599 36.6253 201.983 36.3374 201.983 35.6656C199.391 22.2279 187.872 15.5088 174.531 15.5088C159.558 15.5088 143.912 27.027 143.912 50.0639C143.912 72.8122 158.694 84.619 175.875 84.619C186.337 84.619 195.84 80.2997 201.983 70.7971C202.654 69.8374 202.942 68.5895 202.942 67.1497V50.4484C202.942 49.7766 202.654 49.4887 201.983 49.4887L175.778 49.4872ZM275.41 17.4285C275.41 16.7567 275.122 16.4687 274.45 16.4687H265.331C264.564 16.4687 264.084 16.7567 263.796 17.4285L245.175 60.1416L226.554 17.4285C226.266 16.7567 225.786 16.4687 225.018 16.4687H215.899C215.228 16.4687 214.94 16.7567 214.94 17.4285V82.6978C214.94 83.3696 215.228 83.6575 215.899 83.6575H222.042C222.714 83.6575 223.002 83.3696 223.002 82.6978V29.0427L241.816 71.5639C242.104 72.1397 242.488 72.4276 243.064 72.4276H247.287C247.863 72.4276 248.247 72.1397 248.535 71.5639L267.348 29.0427V82.6978C267.348 83.3696 267.636 83.6575 268.308 83.6575H274.451C275.123 83.6575 275.411 83.3696 275.411 82.6978L275.41 17.4285ZM296.334 17.4285C295.663 16.5647 295.663 16.4687 294.991 16.4687H287.6C286.928 16.4687 286.64 16.9486 286.928 17.4285L307.277 48.2395L284.432 82.6978C284.144 83.1776 284.432 83.6575 285.104 83.6575H292.303C292.975 83.6575 293.167 83.5615 293.839 82.6978L312.076 55.2463L330.313 82.6978C330.985 83.5615 331.177 83.6575 331.849 83.6575H339.047C339.719 83.6575 340.007 83.1776 339.719 82.6978L316.875 48.2395L337.224 17.4285C337.511 16.9486 337.224 16.4687 336.552 16.4687H329.161C328.489 16.4687 328.489 16.5647 327.817 17.4285L312.076 41.1361L296.334 17.4285Z" fill="white"/>
</g>
<defs>
<linearGradient id="paint0_linear_417_19" x1="68.7135" y1="9.03006" x2="30.9031" y2="102.559" gradientUnits="userSpaceOnUse">
<stop stop-color="#03D1CF" stop-opacity="0.988"/>
<stop offset="1" stop-color="#4E09F8"/>
</linearGradient>
<clipPath id="clip0_417_19">
<rect width="347.458" height="100" fill="white"/>
</clipPath>
</defs>
</svg>
