<svg width="200" height="200" viewBox="0 0 200 200" fill="none" xmlns="http://www.w3.org/2000/svg">
<circle cx="100" cy="100" r="100" fill="url(#paint0_linear_1019_49)"/>
<path d="M146.939 70.4145H133.512C135.651 67.189 136.271 63.2736 135.205 59.5516C135.148 59.3526 134.885 58.5681 134.809 58.37C133.32 54.5122 130.169 51.6496 126.163 50.5161C122.071 49.3577 117.784 50.1702 114.401 52.7453L100 63.71L85.5986 52.7453C82.2165 50.1704 77.9298 49.3575 73.8365 50.5161C69.8312 51.6498 66.68 54.5122 65.1914 58.3694C65.1176 58.5606 64.852 59.352 64.7955 59.55C63.7296 63.2734 64.3488 67.1888 66.4882 70.4145H53.0612C51.3706 70.4145 50 71.7849 50 73.4755V97.9633C50 99.6539 51.3706 101.024 53.0612 101.024H56.1224V146.939C56.1224 148.63 57.4931 150 59.1837 150H140.816C142.507 150 143.878 148.63 143.878 146.939V101.024H146.939C148.629 101.024 150 99.6539 150 97.9633V73.4753C150 71.7849 148.629 70.4145 146.939 70.4145ZM103.061 69.0741L118.11 57.6161C119.946 56.2185 122.273 55.7773 124.496 56.4067C126.631 57.011 128.308 58.53 129.096 60.5716C129.138 60.6798 129.287 61.1232 129.319 61.2349C129.926 63.3545 129.501 65.5996 128.153 67.3941C126.761 69.2486 124.645 70.3175 122.35 70.3263C122.102 70.3273 120.408 70.4145 120.408 70.4145H103.061V69.0741H103.061ZM103.061 83.1196L111.379 94.9022H103.061V83.1196ZM70.6812 61.2351C70.7131 61.1239 70.861 60.6824 70.9029 60.5743C71.6918 58.53 73.369 57.011 75.5039 56.4067C77.7263 55.7775 80.0537 56.2185 81.8894 57.6161L96.9388 69.0741V70.4145H79.5918C79.5918 70.4145 77.8984 70.3273 77.6502 70.3263C75.3547 70.3173 73.2396 69.2486 71.8469 67.3941C70.4994 65.5994 70.0745 63.3545 70.6812 61.2351ZM56.1224 94.9022V76.5363H96.9388V94.9022H56.1224ZM137.755 143.878H62.2449V101.024H96.9388V122.451C96.9388 124.142 98.3094 125.512 100 125.512C101.691 125.512 103.061 124.142 103.061 122.451V101.024H115.701L121.989 109.932C122.964 111.313 124.875 111.642 126.255 110.667C127.637 109.692 127.966 107.782 126.991 106.401L123.195 101.024H137.755V143.878ZM143.878 94.9022H118.873L105.908 76.5363H143.878V94.9022Z" fill="white"/>
<defs>
<linearGradient id="paint0_linear_1019_49" x1="236" y1="43" x2="4.44651e-06" y2="165" gradientUnits="userSpaceOnUse">
<stop stop-color="#943259"/>
<stop offset="1" stop-color="#2D1A62"/>
</linearGradient>
</defs>
</svg>
