<svg width="500" height="501" viewBox="0 0 500 501" fill="none" xmlns="http://www.w3.org/2000/svg">
<path fill-rule="evenodd" clip-rule="evenodd" d="M464.478 209.757C467.115 211.176 468.303 212.084 469.444 213.487C470.269 214.537 471.112 216.32 471.323 217.398C471.569 218.492 471.68 220.765 471.625 222.443C471.499 224.864 471.219 226.079 470.155 228.482C469.415 230.156 468.232 232.246 467.471 233.187C466.675 234.112 464.84 235.541 463.361 236.358C461.698 237.298 459.646 237.956 458.164 238.1C456.049 238.316 455.223 238.143 452.474 236.878C449.725 235.614 449.051 235.098 447.81 233.339C447.005 232.246 446.077 230.166 445.783 228.792C445.435 227.443 445.23 225.283 445.313 224.03C445.433 222.691 446.006 220.424 446.735 218.486C447.786 215.819 448.368 214.796 449.977 213.005C451.292 211.492 452.759 210.41 454.545 209.579C455.986 208.847 458.019 208.233 459.104 208.112C460.712 207.973 461.464 208.216 464.478 209.757ZM274.434 277.204C274.917 277.374 275.693 278.144 276.237 278.859C276.882 279.827 277.128 280.922 277.039 282.482C276.946 284.247 276.573 285.573 275.379 288.175C274.366 290.464 273.186 292.417 271.84 294.036C270.727 295.384 268.807 297.393 267.502 298.497C266.232 299.618 263.189 301.834 260.773 303.409C258.357 304.983 253.007 307.946 248.867 310.019C244.781 312.066 238.805 314.792 235.656 316.081C232.507 317.371 228.05 319.091 225.795 319.914C223.541 320.736 218.998 322.263 215.711 323.282C212.405 324.344 207.158 325.908 204.073 326.762C200.988 327.615 196.18 328.865 193.407 329.501C190.633 330.136 186.228 331.158 183.619 331.714C181.009 332.27 175.757 333.263 171.901 333.917C168.08 334.588 161.729 335.541 157.858 336.033C153.988 336.526 147.517 337.166 143.489 337.431C139.462 337.696 133.397 337.903 129.952 337.92C126.507 337.937 121.57 337.732 118.96 337.513C116.331 337.337 112.034 336.756 109.43 336.23C106.808 335.747 102.984 334.97 100.975 334.459C98.9669 333.949 94.5762 332.704 91.2634 331.646C87.0367 330.322 81.9433 328.238 74.3196 324.783C67.7859 321.779 61.721 318.783 59.1952 317.208C56.8647 315.775 53.1508 313.292 50.8963 311.687C48.6417 310.082 45.4346 307.523 43.7368 306.019C42.0201 304.558 39.6075 301.951 38.3473 300.235C37.0872 298.519 35.4882 295.821 34.7469 294.292C34.0245 292.721 33.0083 289.774 32.4948 287.73C31.9814 285.686 31.4977 282.313 31.3983 280.305C31.2822 278.237 31.3484 275.272 31.5111 273.643C31.6737 272.013 32.154 269.083 32.6114 267.176C33.1114 264.978 34.2267 261.876 35.5183 258.958C36.7149 256.254 38.5223 252.85 39.7341 251.083C40.8911 249.343 42.5617 247.218 43.446 246.386C44.2946 245.536 45.3931 244.802 45.8261 244.794C46.2424 244.728 46.7065 244.941 46.8972 245.287C47.0164 245.6 47.0938 246.979 47.0284 248.291C46.9441 249.647 46.7661 252.767 46.5662 255.258C46.3306 257.732 46.3076 261.182 46.4663 262.959C46.6249 264.737 47.1535 267.717 47.5978 269.626C48.0611 271.492 48.9725 274.287 49.6068 275.766C50.222 277.289 51.4662 279.72 52.3716 281.17C53.2771 282.619 55.0424 285.135 56.3595 286.722C57.6577 288.352 60.0558 290.798 61.6464 292.253C64.0514 294.392 66.1153 295.651 73.2992 299.419C79.9832 302.958 83.7677 304.698 89.5441 306.89C93.7115 308.445 99.4399 310.356 102.291 311.099C105.123 311.885 109.609 312.915 112.25 313.355C114.872 313.838 119.331 314.442 122.156 314.76C124.999 315.034 130.06 315.347 133.467 315.416C136.874 315.485 142.503 315.388 146.024 315.2C149.526 315.054 156.121 314.523 160.712 314.052C165.323 313.538 172.324 312.574 176.27 311.91C180.235 311.203 186.216 309.924 189.572 309.04C192.928 308.156 198.03 306.629 200.92 305.633C203.791 304.681 208.191 303.089 210.647 302.101C213.104 301.113 217.856 299.115 221.207 297.66C224.558 296.206 233.414 292.118 240.886 288.633C248.358 285.149 257.065 281.302 260.195 280.056C263.325 278.809 267.033 277.519 268.338 277.19C269.68 276.877 271.417 276.643 272.19 276.74C272.982 276.794 274.006 277.007 274.47 277.22L274.434 277.204ZM69.9305 348.486C70.6567 349.078 71.7118 350.287 72.2694 351.163C72.7912 352.023 73.3639 353.835 73.534 355.102C73.7739 357.278 73.6364 357.783 72.2118 361.001C70.8253 364.134 70.4523 364.686 68.8927 365.879C67.8846 366.604 66.189 367.425 65.0829 367.691C63.3228 368.173 62.7302 368.055 60.3024 366.939C57.8032 365.79 57.4675 365.48 56.5712 363.622C56.0729 362.515 55.5785 360.428 55.4844 358.99C55.3637 357.127 55.5741 355.778 56.2624 354.028C56.9721 352.134 57.5875 351.229 58.8759 350.065C59.8149 349.206 61.4247 348.19 62.5141 347.864C63.5867 347.48 65.4137 347.235 66.5486 347.292C68.1165 347.342 68.921 347.66 69.9305 348.486ZM335.991 87.3469C336.933 87.9353 338.276 89.1727 339.013 90.131C339.768 91.0464 340.559 92.7532 340.841 93.8641C341.087 94.9586 341.189 96.8648 341.071 98.1018C340.908 99.7314 340.462 101.127 339.291 103.481C338.026 106.05 337.375 106.938 335.758 108.261C334.619 109.183 332.774 110.246 331.611 110.641C330.412 111.019 328.676 111.253 327.74 111.133C326.77 110.997 325.07 110.37 323.93 109.743C322.809 109.072 321.411 107.861 320.835 107.028C320.258 106.194 319.509 104.197 319.129 102.628C318.733 101 318.6 98.8726 318.844 97.6419C319.014 96.4806 319.56 94.6655 320.035 93.5927C320.509 92.5198 321.369 91.1593 321.888 90.5711C322.425 89.9401 323.804 88.7665 324.923 87.8869C326.079 87.0238 327.829 86.1759 328.861 85.9793C329.894 85.7826 331.535 85.7628 332.523 85.9587C333.511 86.1546 335.084 86.7748 335.991 87.3469ZM459.303 142.346C464.176 144.638 466.758 146.084 467.178 146.69C467.545 147.22 467.564 147.952 467.26 148.639C466.88 149.497 466.388 149.736 464.709 149.841C463.517 149.913 460.685 149.902 458.361 149.815C456.036 149.727 451.156 149.394 447.502 149.108C443.847 148.821 436.452 148.055 431.036 147.475C425.621 146.896 417.252 146.095 412.463 145.751C407.673 145.408 400.485 145.046 396.464 145.005C392.498 144.937 386.365 145.009 382.882 145.112C379.399 145.214 373.675 145.526 370.116 145.8C366.557 146.075 358.187 146.926 351.462 147.655C344.754 148.444 335.492 149.659 330.913 150.394C326.334 151.129 320.123 152.25 317.152 152.846C314.162 153.485 308.47 154.793 304.462 155.791C300.489 156.804 294.3 158.555 290.723 159.647C287.181 160.756 281.476 162.677 278.094 163.911C274.711 165.145 268.889 167.426 265.103 168.99C261.353 170.571 253.719 174.033 248.14 176.735C242.56 179.438 234.863 183.335 231.029 185.394C227.196 187.453 222.136 190.343 219.758 191.832C217.435 193.294 213.937 195.663 212.066 197.075C210.159 198.471 207.328 200.887 205.778 202.447C204.228 204.007 202.396 206.108 201.652 207.109C200.925 208.169 199.778 210.276 199.075 211.864C198.353 213.494 197.559 215.97 197.31 217.405C197.062 218.84 196.85 221.067 196.803 222.336C196.793 223.623 197.563 227.902 198.573 231.931C199.597 236.12 200.334 240.281 200.283 241.756C200.234 243.128 199.867 245.025 199.487 245.883C199.089 246.784 198.231 248.043 197.622 248.641C196.995 249.282 195.093 250.473 193.38 251.235C191.559 252.05 189.128 252.688 187.538 252.784C186.004 252.853 183.591 252.673 182.156 252.323C180.238 251.803 178.953 251.211 177.427 250.096C176.274 249.205 174.791 247.8 174.126 246.874C173.462 245.949 172.467 243.632 171.899 241.615C171.348 239.657 170.835 235.186 170.835 235.186C170.835 235.186 171.051 230.327 171.375 227.945C171.718 225.52 172.69 221.577 173.484 219.102C174.606 215.693 175.518 213.633 177.283 210.519C178.542 208.257 180.816 204.964 182.318 203.124C183.836 201.343 186.534 198.452 188.357 196.76C190.2 195.025 192.922 192.661 194.429 191.391C195.953 190.181 199.402 187.532 202.063 185.502C204.759 183.488 209.139 180.389 211.811 178.622C214.448 176.839 218.6 174.255 221.049 172.799C223.479 171.386 228.045 168.837 231.238 167.155C234.377 165.5 240.175 162.691 244.073 160.972C247.935 159.236 254.488 156.567 258.616 155.006C262.745 153.444 270.033 150.959 274.828 149.445C279.623 147.932 286.104 146.006 289.17 145.195C292.255 144.341 298.15 142.868 302.229 141.903C306.327 140.896 315.007 139.051 321.456 137.781C327.96 136.485 336.561 134.915 340.615 134.3C344.687 133.642 352.681 132.669 358.357 132.077C364.069 131.502 372.162 130.885 376.368 130.702C380.575 130.519 387.341 130.376 391.345 130.358C395.366 130.4 401.585 130.523 405.152 130.717C408.737 130.868 414.571 131.278 418.062 131.644C421.572 131.966 427.056 132.681 430.273 133.179C433.472 133.72 437.745 134.549 439.773 135.017C441.819 135.442 445.42 136.529 447.764 137.349C450.09 138.212 455.288 140.447 459.303 142.346ZM184.802 119.722C185.302 119.952 186.219 120.89 186.883 121.816C187.529 122.784 188.192 124.587 188.398 125.87C188.699 127.713 188.57 128.686 187.962 130.059C187.506 131.089 186.482 132.529 185.671 133.293C184.896 134.072 183.489 134.923 182.58 135.228C181.327 135.633 180.391 135.513 178.549 134.821C176.529 134.046 176.05 133.671 175.395 132.337C174.944 131.51 174.505 130.172 174.414 129.407C174.323 128.642 174.481 127.217 174.756 126.207C175.067 125.214 175.732 123.712 176.273 122.876C176.76 122.067 177.885 120.983 178.798 120.473C179.656 119.99 181.164 119.496 182.121 119.471C183.096 119.403 184.302 119.493 184.802 119.722ZM371.992 220.371C376.474 222.381 380.432 224.408 382.813 226.019C384.839 227.364 387.499 229.413 388.627 230.552C389.792 231.708 391.671 233.966 392.805 235.676C393.958 237.342 395.486 240.008 396.134 241.649C396.838 243.263 397.592 245.831 397.774 247.361C398.011 248.865 398.095 251.589 398.018 253.413C397.905 255.22 397.439 258.312 396.927 260.245C396.394 262.324 395.048 266.044 393.738 269.005C392.332 272.181 390.356 275.869 388.653 278.649C387.083 281.129 384.604 284.69 383.155 286.606C381.689 288.462 379.129 291.624 377.427 293.527C375.761 295.446 371.683 299.614 368.419 302.813C365.12 305.995 360.37 310.319 357.888 312.432C355.37 314.528 350.375 318.532 346.762 321.26C343.148 323.988 336.459 328.712 331.937 331.745C327.379 334.762 320.355 339.176 316.244 341.572C312.151 343.925 304.011 348.239 298.104 351.101C292.251 353.936 285.474 357.017 283.074 357.876C280.655 358.778 273.679 361.044 267.542 362.871C261.387 364.74 253.816 366.991 250.731 367.845C247.646 368.699 241.897 370.135 237.927 371.047C234.011 371.932 228.94 372.906 226.642 373.243C224.399 373.555 221.779 373.744 220.88 373.641C219.98 373.537 218.976 373.282 218.693 373.048C218.374 372.798 218.278 372.238 218.487 371.766C218.696 371.294 220.819 369.894 223.464 368.579C225.982 367.258 234.617 363.379 242.611 359.979C250.623 356.536 260.328 352.374 264.117 350.707C267.96 349.014 275.849 345.463 281.77 342.763C287.637 340.089 295.953 335.96 300.224 333.689C304.514 331.375 310.321 328.157 313.137 326.456C315.916 324.739 320.508 321.841 323.254 320.005C326.019 318.126 330.014 315.314 332.087 313.737C334.215 312.133 337.481 309.607 339.374 308.049C341.266 306.492 344.63 303.649 346.839 301.669C349.047 299.689 352.786 296.192 355.111 293.852C357.436 291.512 360.67 287.99 362.336 286.07C363.967 284.134 366.181 281.073 367.267 279.299C368.429 277.354 369.713 274.743 370.39 272.73C371.061 270.921 371.791 268.106 371.99 266.493C372.224 264.896 372.39 262.287 372.353 260.72C372.28 259.137 371.857 256.308 371.412 254.4C370.949 252.534 369.895 249.673 369.046 248.095C368.217 246.474 366.806 244.224 365.913 243.039C365.001 241.896 363.329 240.043 362.145 238.93C360.874 237.726 358.35 236.049 355.856 234.695C353.342 233.384 350.305 232.091 348.244 231.504C346.362 231 343.346 230.337 341.567 230.086C339.768 229.879 335.932 229.613 332.994 229.553C330.056 229.493 322.369 229.676 315.852 229.934C309.353 230.25 301.521 230.47 298.437 230.447C295.389 230.44 291.121 230.181 288.998 229.928C286.895 229.632 284.401 229.054 283.473 228.627C282.259 228.069 281.659 227.483 281.425 226.652C281.241 225.999 281.318 224.95 281.622 224.264C282.002 223.405 283.101 222.671 286.09 221.257C288.204 220.266 292.295 218.79 295.126 218.026C297.956 217.262 302.526 216.161 305.333 215.644C308.104 215.111 313.171 214.342 316.606 213.959C320.005 213.56 325.154 213.19 328.042 213.072C330.93 212.954 335.565 212.968 338.339 213.107C341.132 213.204 345.705 213.551 348.53 213.869C351.354 214.186 355.594 214.897 357.946 215.41C360.332 215.939 362.862 216.534 363.578 216.76C364.295 216.987 368.101 218.582 371.992 220.371ZM279.737 244.056C280.435 244.325 282.215 245.351 283.691 246.288C285.967 247.748 286.443 248.225 286.844 249.649C287.095 250.539 287.187 252.079 287.04 252.993C286.875 253.95 286.205 255.656 285.474 256.921C284.721 258.331 283.387 259.887 282.063 261.034C280.851 262.026 278.614 263.683 277.059 264.672C275.503 265.661 272.2 267.396 269.687 268.513C267.209 269.646 263.061 271.25 260.463 272.07C257.866 272.89 253.566 274.063 250.956 274.619C248.328 275.218 243.946 275.992 241.179 276.321C238.448 276.666 234.437 276.991 232.253 277.071C230.105 277.168 226.772 277.029 224.847 276.815C222.941 276.559 219.745 275.915 217.755 275.362C215.785 274.766 212.531 273.476 210.57 272.471C207.164 270.749 206.968 270.608 206.448 268.871C206.128 267.846 205.889 266.445 205.907 265.627C205.907 264.852 206.319 263.337 206.832 262.178C207.402 260.891 208.462 259.467 209.698 258.228C210.767 257.17 212.55 255.666 213.632 254.872C214.714 254.079 217.472 252.506 219.808 251.308C222.088 250.136 225.822 248.495 228.096 247.63C230.315 246.791 235.126 245.337 238.735 244.465C242.327 243.535 248.14 242.438 251.63 242.029C255.12 241.619 259.98 241.22 262.433 241.212C264.87 241.144 268.293 241.273 270.038 241.507C271.765 241.681 274.404 242.224 275.837 242.676C277.305 243.144 279.059 243.744 279.737 244.056ZM85.5842 191.955C86.4768 192.365 87.6982 193.392 88.3462 194.258C89.2205 195.486 89.4544 196.317 89.3586 198.184C89.2058 200.179 88.952 201.044 87.8428 203.065C87.0732 204.415 86.0491 205.855 85.4999 206.223C84.9673 206.649 83.859 207.017 83.0621 207.167C82.2485 207.258 80.9328 207.221 80.1784 207.081C79.3694 206.967 78.2459 206.399 77.6268 205.856C76.991 205.254 76.1881 204.058 75.8851 203.092C75.5273 202.153 75.2691 200.795 75.3231 199.993C75.3224 199.218 75.7729 197.617 76.2857 196.459C76.8176 195.257 77.6776 193.897 78.2671 193.341C78.8376 192.829 79.7173 192.201 80.2453 191.978C80.809 191.773 81.8794 191.49 82.6026 191.41C83.3805 191.303 84.6916 191.544 85.5842 191.955ZM172.269 377.162C173.283 377.783 174.662 379.037 175.327 379.963C175.991 380.888 176.785 382.493 177.086 383.561C177.351 384.612 177.598 386.482 177.589 387.666C177.55 389.404 177.216 390.645 176.039 393.306C174.726 396.369 174.298 396.947 172.403 398.606C170.951 399.849 169.472 400.667 167.876 401.069C166.57 401.399 164.852 401.59 164.079 401.493C163.286 401.438 161.925 401.019 161.033 400.608C160.14 400.198 158.773 399.208 157.964 398.319C157.011 397.364 156.217 395.76 155.714 394.082C155.215 392.2 155.09 390.541 155.347 388.697C155.662 386.724 156.125 385.387 157.103 383.565C157.873 382.214 159.287 380.282 160.299 379.353C161.331 378.381 162.962 377.22 163.946 376.743C164.931 376.267 166.796 375.936 168.076 375.957C169.825 375.986 170.9 376.274 172.269 377.162Z" fill="url(#paint0_radial_921_50)"/>
<defs>
<radialGradient id="paint0_radial_921_50" cx="0" cy="0" r="1" gradientUnits="userSpaceOnUse" gradientTransform="translate(249.399 257.472) rotate(121.708) scale(199.444 197.524)">
<stop stop-color="#FCB503"/>
<stop offset="0.197917" stop-color="#EE502F"/>
<stop offset="0.708333" stop-color="#943259"/>
<stop offset="1" stop-color="#442788"/>
</radialGradient>
</defs>
</svg>
