<svg width="500" height="166" viewBox="0 0 500 166" fill="none" xmlns="http://www.w3.org/2000/svg">
<path d="M63.0583 18.4444C75.2759 11.7254 87.7562 4.74286 90.6463 3.03016C93.5365 1.44921 96.2953 0 96.9522 0C97.4777 0 98.7914 2.76667 99.8424 6.19206C100.893 9.74921 101.813 15.4143 101.813 19.1032C101.944 23.846 101.025 27.0079 98.9228 30.1698C97.2149 32.673 93.2738 36.2302 89.9895 38.2063C86.7052 40.1825 73.1739 48.219 59.9054 56.1238C44.9291 65.0825 33.237 72.9873 29.1645 77.0714C25.4861 80.7603 21.0194 86.9524 19.3116 90.9048C16.9469 96.0429 16.0273 100.39 16.0273 106.056C16.0273 110.403 16.8156 116.332 17.6038 119.23C18.5234 122.129 18.7861 124.763 18.392 125.159C17.8665 125.554 16.0273 124.105 14.3195 121.865C12.4803 119.625 8.53915 112.906 5.5176 106.846C0.262743 96.3063 0 95.1206 0 84.4492C0 74.0413 0.394114 72.4603 4.598 64.6873C7.09406 60.0762 12.0862 53.3571 15.7646 49.6683C19.3116 46.1111 26.537 40.3143 31.5292 36.8889C36.5213 33.5952 50.8408 25.1635 63.0583 18.4444Z" fill="#457B9D"/>
<path fill-rule="evenodd" clip-rule="evenodd" d="M96.2957 50.1952C97.0839 50.0635 98.3976 51.5127 99.1859 53.3571C99.8427 55.2016 100.894 59.1539 101.288 62.1841C101.813 65.4778 101.419 70.3524 100.368 73.7778C99.3172 77.5984 96.6898 81.5508 93.1428 84.9762C90.1212 87.8746 81.3193 93.8031 73.5684 98.1508C65.9489 102.498 57.5411 108.163 55.045 110.667C52.549 113.17 49.9216 117.517 49.2647 120.152C48.4765 122.919 48.4765 127.135 50.0529 133.722L51.498 128.452C52.4176 125.554 55.4392 120.548 58.3293 117.254C61.745 113.302 63.9783 111.721 64.7665 112.643C65.4234 113.302 67.7881 117.254 69.7587 121.206C71.8606 125.422 73.6998 131.219 73.9625 135.04C74.3567 140.178 73.6998 142.944 71.2037 147.556C69.3645 151.113 64.7665 155.987 60.0372 159.676C55.5705 163.233 51.1039 166 50.1843 166C49.3961 166 44.1412 155.987 38.755 143.867C30.2158 124.632 28.9021 120.679 28.508 112.643C28.1139 105.924 28.6394 101.708 30.3472 97.492C31.6609 94.0666 35.6021 88.7968 39.4118 84.9762C43.0902 81.2873 52.2862 74.7 59.9058 70.2206C67.394 65.7412 78.2978 59.4174 84.0782 56.1238C89.8585 52.9619 95.3761 50.1952 96.1643 50.1952H96.2957ZM452.707 54.0158H471.099C488.702 54.0158 489.622 54.1476 493.038 57.1778C496.585 60.3397 496.716 60.7349 496.716 74.4365C496.716 88.4016 496.716 88.5333 488.834 95.1206L500 117.254H480.295L471.361 98.1508L471.099 117.254H452.707V54.0158ZM474.646 82.6047C478.193 82.3412 478.324 82.0778 478.324 75.0952C478.324 68.2444 478.193 67.8492 474.777 67.4539C471.361 67.0587 471.23 67.1904 471.23 74.9635C471.099 83 471.099 83 474.646 82.6047V82.6047ZM145.297 54.0158H184.709V67.1904H163.689V81.6825H182.081V93.5397H163.689V117.254H145.297V54.0158ZM214.267 54.0158H236.6L253.022 117.254L243.563 116.859C234.104 116.595 233.973 116.595 233.316 112.643C232.659 108.822 232.397 108.69 225.565 108.69C218.603 108.69 218.34 108.822 216.238 117.254L198.503 117.122L214.267 54.0158ZM222.15 91.9587C221.624 94.4619 222.15 94.8571 225.434 94.8571C228.85 94.8571 229.375 94.4619 228.718 91.9587C228.455 90.3777 227.799 86.8206 227.536 84.0539C227.142 81.2873 226.354 79.0476 225.697 79.0476C225.04 79.0476 223.989 81.2873 223.595 84.0539C223.069 86.8206 222.412 90.3777 222.15 91.9587ZM291.514 54.1476C304.914 54.1476 305.833 54.2793 308.855 57.3095C311.745 60.2079 312.139 61.7889 312.139 77.7301H293.747V71.8016C293.747 66.4 293.484 65.873 287.179 65.873V105.397H290.463C293.484 105.397 293.747 105.002 293.747 93.5397H312.139V102.103C312.139 109.481 311.745 111.194 308.986 113.96C305.965 117.122 305.045 117.254 290.594 117.254C276.143 117.254 275.224 117.122 272.071 113.96C268.918 110.798 268.787 110.535 268.787 86.2936C268.787 69.6936 269.312 61.1301 270.494 59.2857C271.283 57.8365 273.253 55.992 274.698 55.4651C276.143 54.8063 283.763 54.1476 291.514 54.1476ZM327.904 54.0158H371.256V67.1904H358.119V117.254H339.727V67.1904H327.904V54.0158ZM410.142 54.0158C424.462 54.0158 425.381 54.2793 428.403 57.3095C431.687 60.6031 431.687 60.7349 431.687 85.6349C431.687 110.535 431.687 110.798 428.534 113.96C425.513 117.122 424.593 117.254 410.142 117.254C395.954 117.254 394.772 117.122 387.678 110.93V60.4714L391.487 57.3095C394.903 54.2793 396.217 54.0158 410.142 54.0158V54.0158ZM405.413 104.079H413.295V67.1904H405.413V104.079Z" fill="#F1FAEE"/>
</svg>
