<svg width="380" height="300" viewBox="0 0 380 300" fill="none" xmlns="http://www.w3.org/2000/svg">
<path d="M240.505 181.157C203.357 212.781 163.808 237.768 129.96 252.622C113.026 260.054 97.6336 264.898 84.7574 266.813C71.8644 268.73 61.8373 267.668 55.1436 263.656C48.4499 259.644 45.2451 252.775 45.6493 243.372C46.0529 233.982 50.0592 222.313 57.364 209.11C71.9654 182.72 99.5469 150.559 136.695 118.935C173.843 87.3112 213.393 62.3239 247.241 47.4697C264.174 40.0383 279.567 35.1938 292.443 33.2792C305.336 31.3621 315.363 32.4237 322.057 36.4358C328.75 40.4479 331.955 47.3172 331.551 56.7199C331.147 66.1104 327.141 77.7796 319.836 90.9822C305.235 117.373 277.653 149.534 240.505 181.157Z" stroke="url(#paint0_linear_229_19)" stroke-width="4"/>
<path d="M243.305 118.935C280.453 150.558 308.035 182.719 322.636 209.11C329.941 222.312 333.947 233.982 334.351 243.372C334.755 252.775 331.55 259.644 324.856 263.656C318.163 267.668 308.136 268.73 295.243 266.813C282.366 264.898 266.974 260.054 250.04 252.622C216.192 237.768 176.643 212.781 139.495 181.157C102.347 149.533 74.7652 117.372 60.1638 90.9822C52.8589 77.7795 48.8527 66.1103 48.4491 56.7198C48.0449 47.3171 51.2497 40.4478 57.9434 36.4357C64.6371 32.4237 74.6641 31.362 87.5572 33.2791C100.433 35.1937 115.826 40.0382 132.759 47.4696C166.607 62.3238 206.157 87.3111 243.305 118.935Z" stroke="url(#paint1_linear_229_19)" stroke-width="4"/>
<path d="M260.139 150C260.139 191.196 252.331 228.395 239.793 255.219C227.181 282.205 210.155 298 192.032 298C173.909 298 156.883 282.205 144.271 255.219C131.733 228.395 123.925 191.196 123.925 150C123.925 108.804 131.733 71.6054 144.271 44.7808C156.883 17.7948 173.909 2 192.032 2C210.155 2 227.181 17.7948 239.793 44.7808C252.331 71.6054 260.139 108.804 260.139 150Z" stroke="url(#paint2_linear_229_19)" stroke-width="4"/>
<g clip-path="url(#clip0_229_19)">
<path d="M205.039 138.808H172.929L188.984 133.081L205.039 138.808Z" fill="url(#paint3_linear_229_19)"/>
<path d="M188.984 133.081V114L172.929 138.808L188.984 133.081Z" fill="url(#paint4_linear_229_19)"/>
<path d="M188.984 133.081V114L205.039 138.808L188.984 133.081Z" fill="url(#paint5_linear_229_19)"/>
<path d="M210.01 146.483H167.968L188.984 152.166L210.01 146.483Z" fill="url(#paint6_linear_229_19)"/>
<path d="M152.406 170.492L188.984 186V152.166L167.968 146.483L152.406 170.492Z" fill="url(#paint7_linear_229_19)"/>
<path d="M225.561 170.492L188.984 186V152.166L210.01 146.483L225.561 170.492Z" fill="url(#paint8_linear_229_19)"/>
</g>
<defs>
<linearGradient id="paint0_linear_229_19" x1="323.579" y1="35.1394" x2="150.889" y2="323.253" gradientUnits="userSpaceOnUse">
<stop stop-color="#943259"/>
<stop offset="1" stop-color="#F73F01"/>
</linearGradient>
<linearGradient id="paint1_linear_229_19" x1="56.4205" y1="35.1393" x2="229.111" y2="323.253" gradientUnits="userSpaceOnUse">
<stop stop-color="#943259"/>
<stop offset="1" stop-color="#F73F01"/>
</linearGradient>
<linearGradient id="paint2_linear_229_19" x1="192.032" y1="0" x2="192.032" y2="300" gradientUnits="userSpaceOnUse">
<stop stop-color="#943259"/>
<stop offset="1" stop-color="#F73F01"/>
</linearGradient>
<linearGradient id="paint3_linear_229_19" x1="189.412" y1="143.528" x2="188.178" y2="129.478" gradientUnits="userSpaceOnUse">
<stop offset="0.23" stop-color="#943259"/>
<stop offset="0.34" stop-color="#793070"/>
<stop offset="0.47" stop-color="#612E85"/>
<stop offset="0.59" stop-color="#522C92"/>
<stop offset="0.69" stop-color="#4D2C96"/>
</linearGradient>
<linearGradient id="paint4_linear_229_19" x1="150.16" y1="126.67" x2="205.042" y2="126.182" gradientUnits="userSpaceOnUse">
<stop offset="0.05" stop-color="#FCB503"/>
<stop offset="0.14" stop-color="#FCB103"/>
<stop offset="0.85" stop-color="#F73F01"/>
</linearGradient>
<linearGradient id="paint5_linear_229_19" x1="189.073" y1="106.178" x2="215.777" y2="209.54" gradientUnits="userSpaceOnUse">
<stop offset="0.14" stop-color="#FCB103"/>
<stop offset="0.16" stop-color="#FCB503"/>
<stop offset="0.67" stop-color="#F73F01"/>
</linearGradient>
<linearGradient id="paint6_linear_229_19" x1="188.804" y1="138.439" x2="189.945" y2="189.818" gradientUnits="userSpaceOnUse">
<stop stop-color="#943259"/>
<stop offset="0.13" stop-color="#F73F01"/>
<stop offset="0.18" stop-color="#F96902"/>
<stop offset="0.23" stop-color="#FA8A02"/>
<stop offset="0.28" stop-color="#FBA203"/>
<stop offset="0.33" stop-color="#FCB003"/>
<stop offset="0.37" stop-color="#FCB503"/>
</linearGradient>
<linearGradient id="paint7_linear_229_19" x1="223.249" y1="162.331" x2="112.749" y2="172.295" gradientUnits="userSpaceOnUse">
<stop offset="0.11"/>
<stop offset="0.12" stop-color="#2E1A63"/>
<stop offset="0.55" stop-color="#442788"/>
<stop offset="0.78" stop-color="#4D2C96"/>
</linearGradient>
<linearGradient id="paint8_linear_229_19" x1="165.746" y1="176.44" x2="246.409" y2="150.075" gradientUnits="userSpaceOnUse">
<stop stop-color="#4D2C96"/>
<stop offset="0.57" stop-color="#943259"/>
</linearGradient>
<clipPath id="clip0_229_19">
<rect width="73.1551" height="72" fill="white" transform="translate(152.406 114)"/>
</clipPath>
</defs>
</svg>
